<svg xmlns="http://www.w3.org/2000/svg" xmlns:xlink="http://www.w3.org/1999/xlink" width="253" zoomAndPan="magnify" viewBox="0 0 189.75 35.25" height="47" preserveAspectRatio="xMidYMid meet" version="1.2"><defs><clipPath id="df8c7ac396"><path d="M 1.855469 21 L 8 21 L 8 32 L 1.855469 32 Z M 1.855469 21 "/></clipPath><clipPath id="206138fe68"><path d="M 28.753906 21.605469 L 34.652344 21.605469 L 34.652344 31.972656 L 28.753906 31.972656 Z M 28.753906 21.605469 "/></clipPath><clipPath id="f83dd7d7f6"><path d="M 13.621094 30.570312 L 22.867188 30.570312 L 22.867188 34.441406 L 13.621094 34.441406 Z M 13.621094 30.570312 "/></clipPath></defs><g id="1ef1d675b3"><g clip-rule="nonzero" clip-path="url(#df8c7ac396)"><path style=" stroke:none;fill-rule:nonzero;fill:#ffffff;fill-opacity:1;" d="M 7.671875 25.042969 L 7.671875 31.757812 L 1.855469 28.402344 L 1.855469 21.6875 L 7.671875 25.042969 "/></g><path style=" stroke:none;fill-rule:nonzero;fill:#ffffff;fill-opacity:1;" d="M 15.257812 21.6875 L 15.257812 28.402344 L 9.441406 31.757812 L 9.441406 25.042969 L 15.257812 21.6875 "/><path style=" stroke:none;fill-rule:nonzero;fill:#ffffff;fill-opacity:1;" d="M 14.371094 20.152344 L 8.554688 23.511719 L 2.738281 20.152344 L 8.554688 16.796875 L 14.371094 20.152344 "/><path style=" stroke:none;fill-rule:nonzero;fill:#ffffff;fill-opacity:1;" d="M 27.0625 25.042969 L 27.0625 31.757812 L 21.246094 28.402344 L 21.246094 21.6875 L 27.0625 25.042969 "/><g clip-rule="nonzero" clip-path="url(#206138fe68)"><path style=" stroke:none;fill-rule:nonzero;fill:#ffffff;fill-opacity:1;" d="M 34.648438 21.6875 L 34.648438 28.402344 L 28.835938 31.757812 L 28.835938 25.042969 L 34.648438 21.6875 "/></g><path style=" stroke:none;fill-rule:nonzero;fill:#ffffff;fill-opacity:1;" d="M 33.765625 20.152344 L 27.949219 23.511719 L 22.132812 20.152344 L 27.949219 16.796875 L 33.765625 20.152344 "/><path style=" stroke:none;fill-rule:nonzero;fill:#ffffff;fill-opacity:1;" d="M 17.367188 8.277344 L 17.367188 14.996094 L 11.550781 11.636719 L 11.550781 4.921875 L 17.367188 8.277344 "/><path style=" stroke:none;fill-rule:nonzero;fill:#ffffff;fill-opacity:1;" d="M 24.953125 4.921875 L 24.953125 11.636719 L 19.136719 14.996094 L 19.136719 8.277344 L 24.953125 4.921875 "/><path style=" stroke:none;fill-rule:nonzero;fill:#ffffff;fill-opacity:1;" d="M 24.070312 3.390625 L 18.253906 6.746094 L 12.4375 3.390625 L 18.253906 0.03125 L 24.070312 3.390625 "/><path style=" stroke:none;fill-rule:nonzero;fill:#ffffff;fill-opacity:1;" d="M 6.835938 15.1875 L 6.835938 12.273438 L 9.28125 10.863281 L 9.28125 8.292969 L 5.167969 10.667969 C 4.824219 10.867188 4.609375 11.234375 4.609375 11.628906 L 4.609375 16.46875 L 6.835938 15.1875 "/><path style=" stroke:none;fill-rule:nonzero;fill:#ffffff;fill-opacity:1;" d="M 27.222656 10.863281 L 29.667969 12.273438 L 29.667969 15.1875 L 31.890625 16.46875 L 31.890625 11.628906 C 31.890625 11.234375 31.679688 10.867188 31.335938 10.667969 L 27.222656 8.292969 L 27.222656 10.863281 "/><g clip-rule="nonzero" clip-path="url(#f83dd7d7f6)"><path style=" stroke:none;fill-rule:nonzero;fill:#ffffff;fill-opacity:1;" d="M 20.617188 30.679688 L 18.253906 32.042969 L 15.890625 30.679688 L 13.664062 31.964844 L 17.695312 34.292969 C 17.867188 34.390625 18.058594 34.441406 18.253906 34.441406 C 18.445312 34.441406 18.636719 34.390625 18.808594 34.292969 L 22.839844 31.964844 L 20.617188 30.679688 "/></g><g style="fill:#ffffff;fill-opacity:1;"><g transform="translate(67.614103, 26.895233)"><path style="stroke:none" d="M 0.625 0 L 0.625 -4.78125 L 2.171875 -4.78125 C 2.753906 -4.78125 3.191406 -4.671875 3.484375 -4.453125 C 3.785156 -4.242188 3.9375 -3.9375 3.9375 -3.53125 C 3.9375 -3.28125 3.867188 -3.0625 3.734375 -2.875 C 3.609375 -2.695312 3.378906 -2.550781 3.046875 -2.4375 C 3.234375 -2.394531 3.390625 -2.335938 3.515625 -2.265625 C 3.648438 -2.191406 3.753906 -2.101562 3.828125 -2 C 3.910156 -1.894531 3.96875 -1.78125 4 -1.65625 C 4.039062 -1.539062 4.0625 -1.414062 4.0625 -1.28125 C 4.0625 -0.851562 3.90625 -0.53125 3.59375 -0.3125 C 3.289062 -0.101562 2.832031 0 2.21875 0 Z M 1.25 -0.515625 L 2.203125 -0.515625 C 2.609375 -0.515625 2.914062 -0.578125 3.125 -0.703125 C 3.332031 -0.835938 3.4375 -1.039062 3.4375 -1.3125 C 3.4375 -1.507812 3.382812 -1.671875 3.28125 -1.796875 C 3.175781 -1.921875 3.035156 -2.007812 2.859375 -2.0625 C 2.691406 -2.125 2.5 -2.15625 2.28125 -2.15625 L 1.25 -2.15625 Z M 1.25 -2.671875 L 2.28125 -2.671875 C 2.40625 -2.671875 2.53125 -2.679688 2.65625 -2.703125 C 2.78125 -2.734375 2.894531 -2.773438 3 -2.828125 C 3.101562 -2.890625 3.1875 -2.972656 3.25 -3.078125 C 3.3125 -3.179688 3.34375 -3.304688 3.34375 -3.453125 C 3.34375 -3.734375 3.234375 -3.9375 3.015625 -4.0625 C 2.804688 -4.195312 2.535156 -4.265625 2.203125 -4.265625 L 1.25 -4.265625 Z M 1.25 -2.671875 "/></g></g><g style="fill:#ffffff;fill-opacity:1;"><g transform="translate(72.703512, 26.895233)"><path style="stroke:none" d="M 1.375 0.046875 C 1.1875 0.046875 1.035156 0.0195312 0.921875 -0.03125 C 0.804688 -0.0820312 0.71875 -0.148438 0.65625 -0.234375 C 0.59375 -0.316406 0.550781 -0.414062 0.53125 -0.53125 C 0.507812 -0.644531 0.5 -0.757812 0.5 -0.875 L 0.5 -4.90625 L 1.109375 -4.90625 L 1.109375 -0.9375 C 1.109375 -0.769531 1.140625 -0.640625 1.203125 -0.546875 C 1.273438 -0.460938 1.367188 -0.414062 1.484375 -0.40625 L 1.671875 -0.40625 L 1.671875 -0.015625 C 1.617188 0.00390625 1.566406 0.0195312 1.515625 0.03125 C 1.460938 0.0390625 1.414062 0.046875 1.375 0.046875 Z M 1.375 0.046875 "/></g></g><g style="fill:#ffffff;fill-opacity:1;"><g transform="translate(75.329476, 26.895233)"><path style="stroke:none" d="M 1.859375 0.0625 C 1.546875 0.0625 1.269531 -0.00390625 1.03125 -0.140625 C 0.800781 -0.273438 0.617188 -0.472656 0.484375 -0.734375 C 0.359375 -0.992188 0.296875 -1.316406 0.296875 -1.703125 C 0.296875 -2.054688 0.351562 -2.363281 0.46875 -2.625 C 0.59375 -2.894531 0.769531 -3.101562 1 -3.25 C 1.238281 -3.40625 1.523438 -3.484375 1.859375 -3.484375 C 2.179688 -3.484375 2.457031 -3.410156 2.6875 -3.265625 C 2.914062 -3.128906 3.09375 -2.925781 3.21875 -2.65625 C 3.351562 -2.394531 3.421875 -2.078125 3.421875 -1.703125 C 3.421875 -1.347656 3.359375 -1.035156 3.234375 -0.765625 C 3.117188 -0.503906 2.945312 -0.300781 2.71875 -0.15625 C 2.488281 -0.0078125 2.203125 0.0625 1.859375 0.0625 Z M 1.859375 -0.421875 C 2.066406 -0.421875 2.238281 -0.472656 2.375 -0.578125 C 2.519531 -0.679688 2.628906 -0.828125 2.703125 -1.015625 C 2.773438 -1.210938 2.8125 -1.441406 2.8125 -1.703125 C 2.8125 -1.953125 2.78125 -2.171875 2.71875 -2.359375 C 2.65625 -2.554688 2.550781 -2.710938 2.40625 -2.828125 C 2.269531 -2.941406 2.085938 -3 1.859375 -3 C 1.648438 -3 1.472656 -2.945312 1.328125 -2.84375 C 1.191406 -2.75 1.085938 -2.601562 1.015625 -2.40625 C 0.941406 -2.207031 0.90625 -1.972656 0.90625 -1.703125 C 0.90625 -1.460938 0.9375 -1.242188 1 -1.046875 C 1.0625 -0.859375 1.164062 -0.707031 1.3125 -0.59375 C 1.457031 -0.476562 1.640625 -0.421875 1.859375 -0.421875 Z M 1.859375 -0.421875 "/></g></g><g style="fill:#ffffff;fill-opacity:1;"><g transform="translate(79.702307, 26.895233)"><path style="stroke:none" d="M 1.859375 -3.484375 C 2.109375 -3.484375 2.332031 -3.4375 2.53125 -3.34375 C 2.726562 -3.25 2.890625 -3.113281 3.015625 -2.9375 C 3.140625 -2.769531 3.210938 -2.570312 3.234375 -2.34375 L 2.703125 -2.34375 C 2.679688 -2.457031 2.632812 -2.5625 2.5625 -2.65625 C 2.488281 -2.757812 2.394531 -2.835938 2.28125 -2.890625 C 2.164062 -2.953125 2.03125 -2.984375 1.875 -2.984375 C 1.582031 -2.984375 1.34375 -2.878906 1.15625 -2.671875 C 0.96875 -2.460938 0.875 -2.140625 0.875 -1.703125 C 0.875 -1.304688 0.957031 -0.988281 1.125 -0.75 C 1.300781 -0.519531 1.550781 -0.40625 1.875 -0.40625 C 2.03125 -0.40625 2.164062 -0.429688 2.28125 -0.484375 C 2.40625 -0.546875 2.5 -0.625 2.5625 -0.71875 C 2.632812 -0.820312 2.679688 -0.929688 2.703125 -1.046875 L 3.234375 -1.046875 C 3.203125 -0.816406 3.125 -0.617188 3 -0.453125 C 2.875 -0.285156 2.710938 -0.15625 2.515625 -0.0625 C 2.328125 0.0195312 2.109375 0.0625 1.859375 0.0625 C 1.554688 0.0625 1.285156 -0.00390625 1.046875 -0.140625 C 0.816406 -0.273438 0.632812 -0.472656 0.5 -0.734375 C 0.363281 -0.992188 0.296875 -1.316406 0.296875 -1.703125 C 0.296875 -2.054688 0.351562 -2.363281 0.46875 -2.625 C 0.59375 -2.894531 0.769531 -3.101562 1 -3.25 C 1.238281 -3.40625 1.523438 -3.484375 1.859375 -3.484375 Z M 1.859375 -3.484375 "/></g></g><g style="fill:#ffffff;fill-opacity:1;"><g transform="translate(83.926538, 26.895233)"><path style="stroke:none" d="M 3.5 0 L 2.859375 0 L 1.78125 -1.71875 L 1.109375 -1.015625 L 1.109375 0 L 0.5 0 L 0.5 -4.90625 L 1.109375 -4.90625 L 1.109375 -1.703125 L 2.71875 -3.421875 L 3.421875 -3.421875 L 2.1875 -2.109375 Z M 3.5 0 "/></g></g><g style="fill:#ffffff;fill-opacity:1;"><g transform="translate(88.31258, 26.895233)"><path style="stroke:none" d=""/></g></g><g style="fill:#ffffff;fill-opacity:1;"><g transform="translate(90.496049, 26.895233)"><path style="stroke:none" d="M 2.390625 -4.84375 C 2.722656 -4.84375 3.019531 -4.769531 3.28125 -4.625 C 3.539062 -4.488281 3.75 -4.300781 3.90625 -4.0625 C 4.070312 -3.832031 4.164062 -3.582031 4.1875 -3.3125 L 3.546875 -3.3125 C 3.503906 -3.488281 3.429688 -3.65625 3.328125 -3.8125 C 3.234375 -3.96875 3.101562 -4.085938 2.9375 -4.171875 C 2.78125 -4.265625 2.59375 -4.3125 2.375 -4.3125 C 2.082031 -4.3125 1.835938 -4.242188 1.640625 -4.109375 C 1.441406 -3.972656 1.289062 -3.765625 1.1875 -3.484375 C 1.082031 -3.203125 1.03125 -2.84375 1.03125 -2.40625 C 1.03125 -1.738281 1.144531 -1.25 1.375 -0.9375 C 1.601562 -0.625 1.9375 -0.46875 2.375 -0.46875 C 2.59375 -0.46875 2.78125 -0.515625 2.9375 -0.609375 C 3.101562 -0.703125 3.234375 -0.828125 3.328125 -0.984375 C 3.429688 -1.140625 3.503906 -1.3125 3.546875 -1.5 L 4.1875 -1.5 C 4.164062 -1.300781 4.113281 -1.109375 4.03125 -0.921875 C 3.945312 -0.734375 3.828125 -0.5625 3.671875 -0.40625 C 3.523438 -0.257812 3.34375 -0.144531 3.125 -0.0625 C 2.914062 0.0195312 2.671875 0.0625 2.390625 0.0625 C 1.960938 0.0625 1.597656 -0.03125 1.296875 -0.21875 C 0.992188 -0.414062 0.757812 -0.695312 0.59375 -1.0625 C 0.4375 -1.4375 0.359375 -1.882812 0.359375 -2.40625 C 0.359375 -2.925781 0.4375 -3.363281 0.59375 -3.71875 C 0.75 -4.082031 0.976562 -4.359375 1.28125 -4.546875 C 1.582031 -4.742188 1.953125 -4.84375 2.390625 -4.84375 Z M 2.390625 -4.84375 "/></g></g><g style="fill:#ffffff;fill-opacity:1;"><g transform="translate(95.704341, 26.895233)"><path style="stroke:none" d="M 0.5 0 L 0.5 -4.90625 L 1.09375 -4.90625 L 1.09375 -2.921875 C 1.15625 -3.015625 1.234375 -3.101562 1.328125 -3.1875 C 1.429688 -3.269531 1.550781 -3.332031 1.6875 -3.375 C 1.820312 -3.425781 1.984375 -3.453125 2.171875 -3.453125 C 2.390625 -3.453125 2.585938 -3.410156 2.765625 -3.328125 C 2.953125 -3.253906 3.097656 -3.140625 3.203125 -2.984375 C 3.304688 -2.828125 3.359375 -2.644531 3.359375 -2.4375 L 3.359375 0 L 2.75 0 L 2.75 -2.3125 C 2.75 -2.519531 2.675781 -2.679688 2.53125 -2.796875 C 2.394531 -2.910156 2.21875 -2.96875 2 -2.96875 C 1.84375 -2.96875 1.695312 -2.941406 1.5625 -2.890625 C 1.425781 -2.835938 1.316406 -2.757812 1.234375 -2.65625 C 1.148438 -2.5625 1.109375 -2.4375 1.109375 -2.28125 L 1.109375 0 Z M 0.5 0 "/></g></g><g style="fill:#ffffff;fill-opacity:1;"><g transform="translate(100.172937, 26.895233)"><path style="stroke:none" d="M 1.453125 0.0625 C 1.234375 0.0625 1.035156 0.0234375 0.859375 -0.046875 C 0.691406 -0.128906 0.5625 -0.242188 0.46875 -0.390625 C 0.375 -0.535156 0.328125 -0.710938 0.328125 -0.921875 C 0.328125 -1.304688 0.457031 -1.585938 0.71875 -1.765625 C 0.976562 -1.953125 1.40625 -2.050781 2 -2.0625 L 2.609375 -2.078125 L 2.609375 -2.359375 C 2.609375 -2.566406 2.546875 -2.726562 2.421875 -2.84375 C 2.296875 -2.96875 2.097656 -3.03125 1.828125 -3.03125 C 1.628906 -3.03125 1.457031 -2.984375 1.3125 -2.890625 C 1.164062 -2.804688 1.070312 -2.660156 1.03125 -2.453125 L 0.484375 -2.453125 C 0.492188 -2.671875 0.554688 -2.859375 0.671875 -3.015625 C 0.785156 -3.171875 0.941406 -3.285156 1.140625 -3.359375 C 1.347656 -3.441406 1.585938 -3.484375 1.859375 -3.484375 C 2.160156 -3.484375 2.40625 -3.441406 2.59375 -3.359375 C 2.789062 -3.273438 2.9375 -3.148438 3.03125 -2.984375 C 3.132812 -2.828125 3.1875 -2.628906 3.1875 -2.390625 L 3.1875 0 L 2.671875 0 L 2.625 -0.640625 C 2.488281 -0.367188 2.316406 -0.179688 2.109375 -0.078125 C 1.910156 0.015625 1.691406 0.0625 1.453125 0.0625 Z M 1.640625 -0.375 C 1.753906 -0.375 1.863281 -0.394531 1.96875 -0.4375 C 2.082031 -0.476562 2.1875 -0.535156 2.28125 -0.609375 C 2.382812 -0.679688 2.460938 -0.757812 2.515625 -0.84375 C 2.566406 -0.9375 2.597656 -1.03125 2.609375 -1.125 L 2.609375 -1.703125 L 2.09375 -1.703125 C 1.832031 -1.691406 1.613281 -1.660156 1.4375 -1.609375 C 1.269531 -1.566406 1.140625 -1.492188 1.046875 -1.390625 C 0.960938 -1.285156 0.921875 -1.148438 0.921875 -0.984375 C 0.921875 -0.796875 0.984375 -0.644531 1.109375 -0.53125 C 1.242188 -0.425781 1.421875 -0.375 1.640625 -0.375 Z M 1.640625 -0.375 "/></g></g><g style="fill:#ffffff;fill-opacity:1;"><g transform="translate(104.562281, 26.895233)"><path style="stroke:none" d="M 1.171875 -3.421875 L 1.171875 0 L 0.578125 0 L 0.578125 -3.421875 Z M 1.1875 -4.78125 L 1.1875 -4.140625 L 0.5625 -4.140625 L 0.5625 -4.78125 Z M 1.1875 -4.78125 "/></g></g><g style="fill:#ffffff;fill-opacity:1;"><g transform="translate(106.95709, 26.895233)"><path style="stroke:none" d="M 0.5 0 L 0.5 -3.421875 L 1.09375 -3.421875 L 1.09375 -2.921875 C 1.15625 -3.015625 1.234375 -3.101562 1.328125 -3.1875 C 1.421875 -3.269531 1.535156 -3.335938 1.671875 -3.390625 C 1.816406 -3.441406 1.984375 -3.46875 2.171875 -3.46875 C 2.378906 -3.46875 2.570312 -3.421875 2.75 -3.328125 C 2.9375 -3.242188 3.082031 -3.109375 3.1875 -2.921875 C 3.300781 -2.742188 3.359375 -2.515625 3.359375 -2.234375 L 3.359375 0 L 2.75 0 L 2.75 -2.171875 C 2.75 -2.441406 2.675781 -2.640625 2.53125 -2.765625 C 2.394531 -2.898438 2.21875 -2.96875 2 -2.96875 C 1.84375 -2.96875 1.695312 -2.941406 1.5625 -2.890625 C 1.425781 -2.835938 1.316406 -2.757812 1.234375 -2.65625 C 1.148438 -2.5625 1.109375 -2.4375 1.109375 -2.28125 L 1.109375 0 Z M 0.5 0 "/></g></g><g style="fill:#ffffff;fill-opacity:1;"><g transform="translate(111.428987, 26.895233)"><path style="stroke:none" d=""/></g></g><g style="fill:#ffffff;fill-opacity:1;"><g transform="translate(113.612456, 26.895233)"><path style="stroke:none" d="M 0.625 0 L 0.625 -4.78125 L 2.171875 -4.78125 C 2.753906 -4.78125 3.191406 -4.671875 3.484375 -4.453125 C 3.785156 -4.242188 3.9375 -3.9375 3.9375 -3.53125 C 3.9375 -3.28125 3.867188 -3.0625 3.734375 -2.875 C 3.609375 -2.695312 3.378906 -2.550781 3.046875 -2.4375 C 3.234375 -2.394531 3.390625 -2.335938 3.515625 -2.265625 C 3.648438 -2.191406 3.753906 -2.101562 3.828125 -2 C 3.910156 -1.894531 3.96875 -1.78125 4 -1.65625 C 4.039062 -1.539062 4.0625 -1.414062 4.0625 -1.28125 C 4.0625 -0.851562 3.90625 -0.53125 3.59375 -0.3125 C 3.289062 -0.101562 2.832031 0 2.21875 0 Z M 1.25 -0.515625 L 2.203125 -0.515625 C 2.609375 -0.515625 2.914062 -0.578125 3.125 -0.703125 C 3.332031 -0.835938 3.4375 -1.039062 3.4375 -1.3125 C 3.4375 -1.507812 3.382812 -1.671875 3.28125 -1.796875 C 3.175781 -1.921875 3.035156 -2.007812 2.859375 -2.0625 C 2.691406 -2.125 2.5 -2.15625 2.28125 -2.15625 L 1.25 -2.15625 Z M 1.25 -2.671875 L 2.28125 -2.671875 C 2.40625 -2.671875 2.53125 -2.679688 2.65625 -2.703125 C 2.78125 -2.734375 2.894531 -2.773438 3 -2.828125 C 3.101562 -2.890625 3.1875 -2.972656 3.25 -3.078125 C 3.3125 -3.179688 3.34375 -3.304688 3.34375 -3.453125 C 3.34375 -3.734375 3.234375 -3.9375 3.015625 -4.0625 C 2.804688 -4.195312 2.535156 -4.265625 2.203125 -4.265625 L 1.25 -4.265625 Z M 1.25 -2.671875 "/></g></g><g style="fill:#ffffff;fill-opacity:1;"><g transform="translate(118.701864, 26.895233)"><path style="stroke:none" d="M 1.453125 0.0625 C 1.234375 0.0625 1.035156 0.0234375 0.859375 -0.046875 C 0.691406 -0.128906 0.5625 -0.242188 0.46875 -0.390625 C 0.375 -0.535156 0.328125 -0.710938 0.328125 -0.921875 C 0.328125 -1.304688 0.457031 -1.585938 0.71875 -1.765625 C 0.976562 -1.953125 1.40625 -2.050781 2 -2.0625 L 2.609375 -2.078125 L 2.609375 -2.359375 C 2.609375 -2.566406 2.546875 -2.726562 2.421875 -2.84375 C 2.296875 -2.96875 2.097656 -3.03125 1.828125 -3.03125 C 1.628906 -3.03125 1.457031 -2.984375 1.3125 -2.890625 C 1.164062 -2.804688 1.070312 -2.660156 1.03125 -2.453125 L 0.484375 -2.453125 C 0.492188 -2.671875 0.554688 -2.859375 0.671875 -3.015625 C 0.785156 -3.171875 0.941406 -3.285156 1.140625 -3.359375 C 1.347656 -3.441406 1.585938 -3.484375 1.859375 -3.484375 C 2.160156 -3.484375 2.40625 -3.441406 2.59375 -3.359375 C 2.789062 -3.273438 2.9375 -3.148438 3.03125 -2.984375 C 3.132812 -2.828125 3.1875 -2.628906 3.1875 -2.390625 L 3.1875 0 L 2.671875 0 L 2.625 -0.640625 C 2.488281 -0.367188 2.316406 -0.179688 2.109375 -0.078125 C 1.910156 0.015625 1.691406 0.0625 1.453125 0.0625 Z M 1.640625 -0.375 C 1.753906 -0.375 1.863281 -0.394531 1.96875 -0.4375 C 2.082031 -0.476562 2.1875 -0.535156 2.28125 -0.609375 C 2.382812 -0.679688 2.460938 -0.757812 2.515625 -0.84375 C 2.566406 -0.9375 2.597656 -1.03125 2.609375 -1.125 L 2.609375 -1.703125 L 2.09375 -1.703125 C 1.832031 -1.691406 1.613281 -1.660156 1.4375 -1.609375 C 1.269531 -1.566406 1.140625 -1.492188 1.046875 -1.390625 C 0.960938 -1.285156 0.921875 -1.148438 0.921875 -0.984375 C 0.921875 -0.796875 0.984375 -0.644531 1.109375 -0.53125 C 1.242188 -0.425781 1.421875 -0.375 1.640625 -0.375 Z M 1.640625 -0.375 "/></g></g><g style="fill:#ffffff;fill-opacity:1;"><g transform="translate(123.091208, 26.895233)"><path style="stroke:none" d="M 1.71875 0.0625 C 1.476562 0.0625 1.253906 0.0234375 1.046875 -0.046875 C 0.847656 -0.117188 0.679688 -0.234375 0.546875 -0.390625 C 0.410156 -0.546875 0.328125 -0.75 0.296875 -1 L 0.84375 -1 C 0.875 -0.863281 0.929688 -0.75 1.015625 -0.65625 C 1.097656 -0.570312 1.195312 -0.503906 1.3125 -0.453125 C 1.4375 -0.410156 1.570312 -0.390625 1.71875 -0.390625 C 1.945312 -0.390625 2.128906 -0.429688 2.265625 -0.515625 C 2.410156 -0.597656 2.484375 -0.734375 2.484375 -0.921875 C 2.484375 -1.046875 2.445312 -1.144531 2.375 -1.21875 C 2.300781 -1.289062 2.1875 -1.347656 2.03125 -1.390625 L 1.328125 -1.5625 C 1.046875 -1.625 0.820312 -1.722656 0.65625 -1.859375 C 0.488281 -2.003906 0.40625 -2.207031 0.40625 -2.46875 C 0.40625 -2.664062 0.453125 -2.835938 0.546875 -2.984375 C 0.648438 -3.140625 0.796875 -3.257812 0.984375 -3.34375 C 1.179688 -3.4375 1.425781 -3.484375 1.71875 -3.484375 C 2.082031 -3.484375 2.378906 -3.398438 2.609375 -3.234375 C 2.835938 -3.066406 2.957031 -2.820312 2.96875 -2.5 L 2.421875 -2.5 C 2.398438 -2.664062 2.328125 -2.796875 2.203125 -2.890625 C 2.078125 -2.984375 1.910156 -3.03125 1.703125 -3.03125 C 1.484375 -3.03125 1.304688 -2.984375 1.171875 -2.890625 C 1.035156 -2.804688 0.96875 -2.675781 0.96875 -2.5 C 0.96875 -2.375 1.015625 -2.273438 1.109375 -2.203125 C 1.210938 -2.140625 1.359375 -2.082031 1.546875 -2.03125 L 2.234375 -1.859375 C 2.390625 -1.816406 2.519531 -1.757812 2.625 -1.6875 C 2.726562 -1.625 2.804688 -1.550781 2.859375 -1.46875 C 2.921875 -1.382812 2.960938 -1.296875 2.984375 -1.203125 C 3.015625 -1.117188 3.03125 -1.035156 3.03125 -0.953125 C 3.03125 -0.742188 2.976562 -0.5625 2.875 -0.40625 C 2.769531 -0.257812 2.617188 -0.144531 2.421875 -0.0625 C 2.234375 0.0195312 2 0.0625 1.71875 0.0625 Z M 1.71875 0.0625 "/></g></g><g style="fill:#ffffff;fill-opacity:1;"><g transform="translate(127.130519, 26.895233)"><path style="stroke:none" d="M 0.9375 -1.5625 C 0.9375 -1.351562 0.972656 -1.160156 1.046875 -0.984375 C 1.117188 -0.804688 1.226562 -0.664062 1.375 -0.5625 C 1.519531 -0.457031 1.703125 -0.40625 1.921875 -0.40625 C 2.140625 -0.40625 2.328125 -0.453125 2.484375 -0.546875 C 2.640625 -0.648438 2.742188 -0.800781 2.796875 -1 L 3.375 -1 C 3.332031 -0.769531 3.238281 -0.570312 3.09375 -0.40625 C 2.945312 -0.25 2.769531 -0.128906 2.5625 -0.046875 C 2.363281 0.0234375 2.15625 0.0625 1.9375 0.0625 C 1.613281 0.0625 1.332031 -0.00390625 1.09375 -0.140625 C 0.851562 -0.273438 0.664062 -0.472656 0.53125 -0.734375 C 0.394531 -0.992188 0.328125 -1.304688 0.328125 -1.671875 C 0.328125 -2.035156 0.382812 -2.351562 0.5 -2.625 C 0.625 -2.894531 0.800781 -3.101562 1.03125 -3.25 C 1.269531 -3.40625 1.554688 -3.484375 1.890625 -3.484375 C 2.210938 -3.484375 2.484375 -3.410156 2.703125 -3.265625 C 2.929688 -3.128906 3.101562 -2.9375 3.21875 -2.6875 C 3.332031 -2.4375 3.390625 -2.140625 3.390625 -1.796875 L 3.390625 -1.5625 Z M 0.9375 -1.984375 L 2.796875 -1.984375 C 2.796875 -2.179688 2.765625 -2.359375 2.703125 -2.515625 C 2.640625 -2.671875 2.539062 -2.789062 2.40625 -2.875 C 2.269531 -2.96875 2.097656 -3.015625 1.890625 -3.015625 C 1.671875 -3.015625 1.492188 -2.960938 1.359375 -2.859375 C 1.222656 -2.765625 1.117188 -2.632812 1.046875 -2.46875 C 0.972656 -2.3125 0.9375 -2.148438 0.9375 -1.984375 Z M 0.9375 -1.984375 "/></g></g><g style="fill:#ffffff;fill-opacity:1;"><g transform="translate(131.509958, 26.895233)"><path style="stroke:none" d="M 1.734375 0.0625 C 1.296875 0.0625 0.945312 -0.0859375 0.6875 -0.390625 C 0.425781 -0.691406 0.296875 -1.132812 0.296875 -1.71875 C 0.296875 -2.070312 0.347656 -2.378906 0.453125 -2.640625 C 0.554688 -2.910156 0.710938 -3.117188 0.921875 -3.265625 C 1.128906 -3.410156 1.382812 -3.484375 1.6875 -3.484375 C 1.851562 -3.484375 2 -3.460938 2.125 -3.421875 C 2.25 -3.378906 2.359375 -3.328125 2.453125 -3.265625 C 2.546875 -3.203125 2.617188 -3.132812 2.671875 -3.0625 C 2.734375 -3 2.78125 -2.9375 2.8125 -2.875 L 2.8125 -4.90625 L 3.421875 -4.90625 L 3.421875 0 L 2.96875 0 L 2.890625 -0.703125 C 2.867188 -0.628906 2.832031 -0.550781 2.78125 -0.46875 C 2.738281 -0.382812 2.671875 -0.300781 2.578125 -0.21875 C 2.492188 -0.132812 2.378906 -0.0664062 2.234375 -0.015625 C 2.097656 0.0351562 1.929688 0.0625 1.734375 0.0625 Z M 1.84375 -0.40625 C 2.1875 -0.40625 2.429688 -0.507812 2.578125 -0.71875 C 2.734375 -0.925781 2.8125 -1.269531 2.8125 -1.75 C 2.8125 -2.019531 2.773438 -2.25 2.703125 -2.4375 C 2.640625 -2.625 2.539062 -2.765625 2.40625 -2.859375 C 2.269531 -2.953125 2.085938 -3 1.859375 -3 C 1.578125 -3 1.347656 -2.898438 1.171875 -2.703125 C 0.992188 -2.503906 0.90625 -2.1875 0.90625 -1.75 C 0.90625 -1.320312 0.984375 -0.988281 1.140625 -0.75 C 1.304688 -0.519531 1.539062 -0.40625 1.84375 -0.40625 Z M 1.84375 -0.40625 "/></g></g><g style="fill:#ffffff;fill-opacity:1;"><g transform="translate(36.954516, 14.671698)"><path style="stroke:none" d="M 2.21875 -9.171875 L 3.515625 -9.171875 C 4.054688 -9.171875 4.460938 -9.03125 4.734375 -8.75 C 5.015625 -8.476562 5.15625 -8.066406 5.15625 -7.515625 L 5.15625 -6.3125 C 5.15625 -6.1875 5.097656 -6.125 4.984375 -6.125 L 3.78125 -6.125 C 3.65625 -6.125 3.59375 -6.1875 3.59375 -6.3125 L 3.59375 -7.203125 C 3.59375 -7.503906 3.441406 -7.65625 3.140625 -7.65625 L 2.59375 -7.65625 C 2.289062 -7.65625 2.140625 -7.503906 2.140625 -7.203125 L 2.140625 -5.625 L 4.859375 -4.71875 C 5.054688 -4.632812 5.15625 -4.492188 5.15625 -4.296875 L 5.15625 -1.65625 C 5.15625 -1.113281 5.015625 -0.703125 4.734375 -0.421875 C 4.460938 -0.140625 4.054688 0 3.515625 0 L 2.21875 0 C 1.6875 0 1.28125 -0.140625 1 -0.421875 C 0.71875 -0.703125 0.578125 -1.113281 0.578125 -1.65625 L 0.578125 -2.859375 C 0.578125 -2.984375 0.632812 -3.046875 0.75 -3.046875 L 1.953125 -3.046875 C 2.078125 -3.046875 2.140625 -2.984375 2.140625 -2.859375 L 2.140625 -1.96875 C 2.140625 -1.664062 2.289062 -1.515625 2.59375 -1.515625 L 3.140625 -1.515625 C 3.441406 -1.515625 3.59375 -1.664062 3.59375 -1.96875 L 3.59375 -3.5 L 0.890625 -4.390625 C 0.679688 -4.460938 0.578125 -4.601562 0.578125 -4.8125 L 0.578125 -7.515625 C 0.578125 -8.066406 0.71875 -8.476562 1 -8.75 C 1.28125 -9.03125 1.6875 -9.171875 2.21875 -9.171875 Z M 2.21875 -9.171875 "/></g></g><g style="fill:#ffffff;fill-opacity:1;"><g transform="translate(42.686244, 14.671698)"><path style="stroke:none" d="M 4.75 -8.03125 L 0.53125 -8.03125 C 0.40625 -8.03125 0.34375 -7.96875 0.34375 -7.84375 L 0.34375 -6.703125 C 0.34375 -6.578125 0.40625 -6.515625 0.53125 -6.515625 L 1.859375 -6.515625 L 1.859375 -0.1875 C 1.859375 -0.0625 1.921875 0 2.046875 0 L 3.234375 0 C 3.359375 0 3.421875 -0.0625 3.421875 -0.1875 L 3.421875 -6.515625 L 4.75 -6.515625 C 4.875 -6.515625 4.9375 -6.578125 4.9375 -6.703125 L 4.9375 -7.84375 C 4.9375 -7.96875 4.875 -8.03125 4.75 -8.03125 Z M 4.75 -8.03125 "/></g></g><g style="fill:#ffffff;fill-opacity:1;"><g transform="translate(47.959429, 14.671698)"><path style="stroke:none" d="M 3.875 -8.03125 L 4.9375 -8.03125 C 4.988281 -8.03125 5.035156 -8.003906 5.078125 -7.953125 C 5.128906 -7.910156 5.15625 -7.859375 5.15625 -7.796875 L 5.15625 -1.65625 C 5.15625 -1.113281 5.015625 -0.703125 4.734375 -0.421875 C 4.460938 -0.140625 4.054688 0 3.515625 0 L 2.21875 0 C 1.6875 0 1.28125 -0.140625 1 -0.421875 C 0.71875 -0.703125 0.578125 -1.113281 0.578125 -1.65625 L 0.578125 -7.796875 C 0.578125 -7.859375 0.597656 -7.910156 0.640625 -7.953125 C 0.691406 -8.003906 0.742188 -8.03125 0.796875 -8.03125 L 1.90625 -8.03125 C 1.96875 -8.03125 2.019531 -8.003906 2.0625 -7.953125 C 2.113281 -7.910156 2.140625 -7.859375 2.140625 -7.796875 L 2.140625 -1.96875 C 2.140625 -1.664062 2.289062 -1.515625 2.59375 -1.515625 L 3.1875 -1.515625 C 3.488281 -1.515625 3.640625 -1.664062 3.640625 -1.96875 L 3.640625 -7.796875 C 3.640625 -7.859375 3.660156 -7.910156 3.703125 -7.953125 C 3.753906 -8.003906 3.8125 -8.03125 3.875 -8.03125 Z M 3.875 -8.03125 "/></g></g><g style="fill:#ffffff;fill-opacity:1;"><g transform="translate(53.691157, 14.671698)"><path style="stroke:none" d="M 0.578125 -0.1875 L 0.578125 -7.84375 C 0.578125 -7.96875 0.632812 -8.03125 0.75 -8.03125 L 3.515625 -8.03125 C 4.054688 -8.03125 4.460938 -7.882812 4.734375 -7.59375 C 5.015625 -7.3125 5.15625 -6.898438 5.15625 -6.359375 L 5.15625 -1.65625 C 5.15625 -1.113281 5.015625 -0.703125 4.734375 -0.421875 C 4.460938 -0.140625 4.054688 0 3.515625 0 L 0.75 0 C 0.632812 0 0.578125 -0.0625 0.578125 -0.1875 Z M 2.140625 -1.515625 L 3.1875 -1.515625 C 3.488281 -1.515625 3.640625 -1.664062 3.640625 -1.96875 L 3.640625 -6.046875 C 3.640625 -6.359375 3.488281 -6.515625 3.1875 -6.515625 L 2.140625 -6.515625 Z M 2.140625 -1.515625 "/></g></g><g style="fill:#ffffff;fill-opacity:1;"><g transform="translate(59.422885, 14.671698)"><path style="stroke:none" d="M 5.15625 -7.84375 L 5.15625 -6.703125 C 5.15625 -6.566406 5.09375 -6.5 4.96875 -6.5 L 2.140625 -6.5 L 2.140625 -4.734375 L 4.296875 -4.734375 C 4.410156 -4.734375 4.46875 -4.671875 4.46875 -4.546875 L 4.46875 -3.40625 C 4.46875 -3.28125 4.410156 -3.21875 4.296875 -3.21875 L 2.140625 -3.21875 L 2.140625 -1.515625 L 4.96875 -1.515625 C 5.09375 -1.515625 5.15625 -1.453125 5.15625 -1.328125 L 5.15625 -0.1875 C 5.15625 -0.0625 5.09375 0 4.96875 0 L 0.75 0 C 0.632812 0 0.578125 -0.0625 0.578125 -0.1875 L 0.578125 -7.84375 C 0.578125 -7.96875 0.632812 -8.03125 0.75 -8.03125 L 4.96875 -8.03125 C 5.09375 -8.03125 5.15625 -7.96875 5.15625 -7.84375 Z M 5.15625 -7.84375 "/></g></g><g style="fill:#ffffff;fill-opacity:1;"><g transform="translate(65.143146, 14.671698)"><path style="stroke:none" d="M 4.203125 -8.03125 L 5.28125 -8.03125 C 5.40625 -8.03125 5.46875 -7.96875 5.46875 -7.84375 L 5.46875 -0.1875 C 5.46875 -0.0625 5.40625 0 5.28125 0 L 4.375 0 C 4.289062 0 4.222656 -0.0507812 4.171875 -0.15625 L 2.015625 -4.53125 L 2.015625 -0.1875 C 2.015625 -0.0625 1.953125 0 1.828125 0 L 0.75 0 C 0.632812 0 0.578125 -0.0625 0.578125 -0.1875 L 0.578125 -7.84375 C 0.578125 -7.96875 0.632812 -8.03125 0.75 -8.03125 L 1.65625 -8.03125 C 1.75 -8.03125 1.820312 -7.976562 1.875 -7.875 L 4.03125 -3.5 L 4.03125 -7.84375 C 4.03125 -7.96875 4.085938 -8.03125 4.203125 -8.03125 Z M 4.203125 -8.03125 "/></g></g><g style="fill:#ffffff;fill-opacity:1;"><g transform="translate(71.184386, 14.671698)"><path style="stroke:none" d="M 4.75 -8.03125 L 0.53125 -8.03125 C 0.40625 -8.03125 0.34375 -7.96875 0.34375 -7.84375 L 0.34375 -6.703125 C 0.34375 -6.578125 0.40625 -6.515625 0.53125 -6.515625 L 1.859375 -6.515625 L 1.859375 -0.1875 C 1.859375 -0.0625 1.921875 0 2.046875 0 L 3.234375 0 C 3.359375 0 3.421875 -0.0625 3.421875 -0.1875 L 3.421875 -6.515625 L 4.75 -6.515625 C 4.875 -6.515625 4.9375 -6.578125 4.9375 -6.703125 L 4.9375 -7.84375 C 4.9375 -7.96875 4.875 -8.03125 4.75 -8.03125 Z M 4.75 -8.03125 "/></g></g><g style="fill:#ffffff;fill-opacity:1;"><g transform="translate(76.457571, 14.671698)"><path style="stroke:none" d=""/></g></g><g style="fill:#ffffff;fill-opacity:1;"><g transform="translate(79.323432, 14.671698)"><path style="stroke:none" d="M 0.578125 -0.1875 L 0.578125 -8.984375 C 0.578125 -9.109375 0.632812 -9.171875 0.75 -9.171875 L 3.515625 -9.171875 C 4.054688 -9.171875 4.460938 -9.03125 4.734375 -8.75 C 5.015625 -8.46875 5.15625 -8.054688 5.15625 -7.515625 L 5.15625 -1.65625 C 5.15625 -1.113281 5.015625 -0.703125 4.734375 -0.421875 C 4.460938 -0.140625 4.054688 0 3.515625 0 L 0.75 0 C 0.632812 0 0.578125 -0.0625 0.578125 -0.1875 Z M 2.140625 -1.515625 L 3.1875 -1.515625 C 3.488281 -1.515625 3.640625 -1.664062 3.640625 -1.96875 L 3.640625 -7.1875 C 3.640625 -7.5 3.488281 -7.65625 3.1875 -7.65625 L 2.140625 -7.65625 Z M 2.140625 -1.515625 "/></g></g><g style="fill:#ffffff;fill-opacity:1;"><g transform="translate(85.05516, 14.671698)"><path style="stroke:none" d="M 5.984375 0 L 4.875 0 C 4.769531 0 4.707031 -0.0507812 4.6875 -0.15625 L 4.328125 -1.609375 L 2.171875 -1.609375 L 1.8125 -0.15625 C 1.789062 -0.0507812 1.726562 0 1.625 0 L 0.5 0 C 0.363281 0 0.316406 -0.0625 0.359375 -0.1875 L 2.265625 -7.875 C 2.285156 -7.976562 2.347656 -8.03125 2.453125 -8.03125 L 4.046875 -8.03125 C 4.148438 -8.03125 4.21875 -7.976562 4.25 -7.875 L 6.140625 -0.1875 C 6.179688 -0.0625 6.128906 0 5.984375 0 Z M 3.96875 -2.9375 L 3.25 -6.0625 L 2.515625 -2.9375 Z M 3.96875 -2.9375 "/></g></g><g style="fill:#ffffff;fill-opacity:1;"><g transform="translate(91.554937, 14.671698)"><path style="stroke:none" d="M 4.75 -8.03125 L 0.53125 -8.03125 C 0.40625 -8.03125 0.34375 -7.96875 0.34375 -7.84375 L 0.34375 -6.703125 C 0.34375 -6.578125 0.40625 -6.515625 0.53125 -6.515625 L 1.859375 -6.515625 L 1.859375 -0.1875 C 1.859375 -0.0625 1.921875 0 2.046875 0 L 3.234375 0 C 3.359375 0 3.421875 -0.0625 3.421875 -0.1875 L 3.421875 -6.515625 L 4.75 -6.515625 C 4.875 -6.515625 4.9375 -6.578125 4.9375 -6.703125 L 4.9375 -7.84375 C 4.9375 -7.96875 4.875 -8.03125 4.75 -8.03125 Z M 4.75 -8.03125 "/></g></g><g style="fill:#ffffff;fill-opacity:1;"><g transform="translate(96.828122, 14.671698)"><path style="stroke:none" d="M 5.984375 0 L 4.875 0 C 4.769531 0 4.707031 -0.0507812 4.6875 -0.15625 L 4.328125 -1.609375 L 2.171875 -1.609375 L 1.8125 -0.15625 C 1.789062 -0.0507812 1.726562 0 1.625 0 L 0.5 0 C 0.363281 0 0.316406 -0.0625 0.359375 -0.1875 L 2.265625 -7.875 C 2.285156 -7.976562 2.347656 -8.03125 2.453125 -8.03125 L 4.046875 -8.03125 C 4.148438 -8.03125 4.21875 -7.976562 4.25 -7.875 L 6.140625 -0.1875 C 6.179688 -0.0625 6.128906 0 5.984375 0 Z M 3.96875 -2.9375 L 3.25 -6.0625 L 2.515625 -2.9375 Z M 3.96875 -2.9375 "/></g></g><g style="fill:#ffffff;fill-opacity:1;"><g transform="translate(103.327899, 14.671698)"><path style="stroke:none" d=""/></g></g><g style="fill:#ffffff;fill-opacity:1;"><g transform="translate(106.19376, 14.671698)"><path style="stroke:none" d="M 5.375 -9.171875 L 6.875 -9.171875 C 7.03125 -9.171875 7.109375 -9.097656 7.109375 -8.953125 L 7.109375 -0.234375 C 7.109375 -0.078125 7.03125 0 6.875 0 L 5.8125 0 C 5.65625 0 5.578125 -0.078125 5.578125 -0.234375 L 5.578125 -5.390625 L 5.5 -5.390625 L 4.375 -0.203125 C 4.34375 -0.0664062 4.257812 0 4.125 0 L 3.5625 0 C 3.425781 0 3.335938 -0.0664062 3.296875 -0.203125 L 2.171875 -5.390625 L 2.09375 -5.390625 L 2.09375 -0.234375 C 2.09375 -0.078125 2.015625 0 1.859375 0 L 0.796875 0 C 0.648438 0 0.578125 -0.078125 0.578125 -0.234375 L 0.578125 -8.953125 C 0.578125 -9.097656 0.648438 -9.171875 0.796875 -9.171875 L 2.3125 -9.171875 C 2.445312 -9.171875 2.53125 -9.101562 2.5625 -8.96875 L 3.84375 -3.25 L 5.109375 -8.96875 C 5.148438 -9.101562 5.238281 -9.171875 5.375 -9.171875 Z M 5.375 -9.171875 "/></g></g><g style="fill:#ffffff;fill-opacity:1;"><g transform="translate(113.874275, 14.671698)"><path style="stroke:none" d="M 5.984375 0 L 4.875 0 C 4.769531 0 4.707031 -0.0507812 4.6875 -0.15625 L 4.328125 -1.609375 L 2.171875 -1.609375 L 1.8125 -0.15625 C 1.789062 -0.0507812 1.726562 0 1.625 0 L 0.5 0 C 0.363281 0 0.316406 -0.0625 0.359375 -0.1875 L 2.265625 -7.875 C 2.285156 -7.976562 2.347656 -8.03125 2.453125 -8.03125 L 4.046875 -8.03125 C 4.148438 -8.03125 4.21875 -7.976562 4.25 -7.875 L 6.140625 -0.1875 C 6.179688 -0.0625 6.128906 0 5.984375 0 Z M 3.96875 -2.9375 L 3.25 -6.0625 L 2.515625 -2.9375 Z M 3.96875 -2.9375 "/></g></g><g style="fill:#ffffff;fill-opacity:1;"><g transform="translate(120.374052, 14.671698)"><path style="stroke:none" d="M 4.203125 -8.03125 L 5.28125 -8.03125 C 5.40625 -8.03125 5.46875 -7.96875 5.46875 -7.84375 L 5.46875 -0.1875 C 5.46875 -0.0625 5.40625 0 5.28125 0 L 4.375 0 C 4.289062 0 4.222656 -0.0507812 4.171875 -0.15625 L 2.015625 -4.53125 L 2.015625 -0.1875 C 2.015625 -0.0625 1.953125 0 1.828125 0 L 0.75 0 C 0.632812 0 0.578125 -0.0625 0.578125 -0.1875 L 0.578125 -7.84375 C 0.578125 -7.96875 0.632812 -8.03125 0.75 -8.03125 L 1.65625 -8.03125 C 1.75 -8.03125 1.820312 -7.976562 1.875 -7.875 L 4.03125 -3.5 L 4.03125 -7.84375 C 4.03125 -7.96875 4.085938 -8.03125 4.203125 -8.03125 Z M 4.203125 -8.03125 "/></g></g><g style="fill:#ffffff;fill-opacity:1;"><g transform="translate(126.415292, 14.671698)"><path style="stroke:none" d="M 5.984375 0 L 4.875 0 C 4.769531 0 4.707031 -0.0507812 4.6875 -0.15625 L 4.328125 -1.609375 L 2.171875 -1.609375 L 1.8125 -0.15625 C 1.789062 -0.0507812 1.726562 0 1.625 0 L 0.5 0 C 0.363281 0 0.316406 -0.0625 0.359375 -0.1875 L 2.265625 -7.875 C 2.285156 -7.976562 2.347656 -8.03125 2.453125 -8.03125 L 4.046875 -8.03125 C 4.148438 -8.03125 4.21875 -7.976562 4.25 -7.875 L 6.140625 -0.1875 C 6.179688 -0.0625 6.128906 0 5.984375 0 Z M 3.96875 -2.9375 L 3.25 -6.0625 L 2.515625 -2.9375 Z M 3.96875 -2.9375 "/></g></g><g style="fill:#ffffff;fill-opacity:1;"><g transform="translate(132.915069, 14.671698)"><path style="stroke:none" d="M 0.578125 -1.65625 L 0.578125 -6.375 C 0.578125 -6.914062 0.71875 -7.328125 1 -7.609375 C 1.28125 -7.890625 1.6875 -8.03125 2.21875 -8.03125 L 3.515625 -8.03125 C 4.046875 -8.03125 4.453125 -7.890625 4.734375 -7.609375 C 5.015625 -7.328125 5.15625 -6.914062 5.15625 -6.375 L 5.15625 -5.53125 C 5.15625 -5.40625 5.097656 -5.34375 4.984375 -5.34375 L 3.90625 -5.34375 C 3.78125 -5.34375 3.71875 -5.40625 3.71875 -5.53125 L 3.71875 -6.09375 C 3.71875 -6.394531 3.5625 -6.546875 3.25 -6.546875 L 2.515625 -6.546875 C 2.210938 -6.546875 2.0625 -6.394531 2.0625 -6.09375 L 2.0625 -1.9375 C 2.0625 -1.632812 2.210938 -1.484375 2.515625 -1.484375 L 3.25 -1.484375 C 3.5625 -1.484375 3.71875 -1.632812 3.71875 -1.9375 L 3.71875 -2.9375 L 3.125 -2.9375 C 3 -2.9375 2.9375 -3 2.9375 -3.125 L 2.9375 -4.265625 C 2.9375 -4.390625 3 -4.453125 3.125 -4.453125 L 4.984375 -4.453125 C 5.097656 -4.453125 5.15625 -4.390625 5.15625 -4.265625 L 5.15625 -1.65625 C 5.15625 -1.113281 5.015625 -0.703125 4.734375 -0.421875 C 4.453125 -0.140625 4.046875 0 3.515625 0 L 2.21875 0 C 1.6875 0 1.28125 -0.140625 1 -0.421875 C 0.71875 -0.703125 0.578125 -1.113281 0.578125 -1.65625 Z M 0.578125 -1.65625 "/></g></g><g style="fill:#ffffff;fill-opacity:1;"><g transform="translate(138.646791, 14.671698)"><path style="stroke:none" d="M 5.15625 -7.84375 L 5.15625 -6.703125 C 5.15625 -6.566406 5.09375 -6.5 4.96875 -6.5 L 2.140625 -6.5 L 2.140625 -4.734375 L 4.296875 -4.734375 C 4.410156 -4.734375 4.46875 -4.671875 4.46875 -4.546875 L 4.46875 -3.40625 C 4.46875 -3.28125 4.410156 -3.21875 4.296875 -3.21875 L 2.140625 -3.21875 L 2.140625 -1.515625 L 4.96875 -1.515625 C 5.09375 -1.515625 5.15625 -1.453125 5.15625 -1.328125 L 5.15625 -0.1875 C 5.15625 -0.0625 5.09375 0 4.96875 0 L 0.75 0 C 0.632812 0 0.578125 -0.0625 0.578125 -0.1875 L 0.578125 -7.84375 C 0.578125 -7.96875 0.632812 -8.03125 0.75 -8.03125 L 4.96875 -8.03125 C 5.09375 -8.03125 5.15625 -7.96875 5.15625 -7.84375 Z M 5.15625 -7.84375 "/></g></g><g style="fill:#ffffff;fill-opacity:1;"><g transform="translate(144.367064, 14.671698)"><path style="stroke:none" d="M 5.375 -8.03125 L 6.875 -8.03125 C 7.03125 -8.03125 7.109375 -7.953125 7.109375 -7.796875 L 7.109375 -0.234375 C 7.109375 -0.078125 7.03125 0 6.875 0 L 5.8125 0 C 5.65625 0 5.578125 -0.078125 5.578125 -0.234375 L 5.578125 -4.734375 L 5.5 -4.734375 L 4.421875 -0.1875 C 4.390625 -0.0625 4.304688 0 4.171875 0 L 3.5 0 C 3.363281 0 3.28125 -0.0625 3.25 -0.1875 L 2.171875 -4.734375 L 2.09375 -4.734375 L 2.09375 -0.234375 C 2.09375 -0.078125 2.015625 0 1.859375 0 L 0.796875 0 C 0.648438 0 0.578125 -0.078125 0.578125 -0.234375 L 0.578125 -7.796875 C 0.578125 -7.953125 0.648438 -8.03125 0.796875 -8.03125 L 2.3125 -8.03125 C 2.445312 -8.03125 2.53125 -7.960938 2.5625 -7.828125 L 3.84375 -2.71875 L 5.109375 -7.828125 C 5.148438 -7.960938 5.238281 -8.03125 5.375 -8.03125 Z M 5.375 -8.03125 "/></g></g><g style="fill:#ffffff;fill-opacity:1;"><g transform="translate(152.047578, 14.671698)"><path style="stroke:none" d="M 5.15625 -7.84375 L 5.15625 -6.703125 C 5.15625 -6.566406 5.09375 -6.5 4.96875 -6.5 L 2.140625 -6.5 L 2.140625 -4.734375 L 4.296875 -4.734375 C 4.410156 -4.734375 4.46875 -4.671875 4.46875 -4.546875 L 4.46875 -3.40625 C 4.46875 -3.28125 4.410156 -3.21875 4.296875 -3.21875 L 2.140625 -3.21875 L 2.140625 -1.515625 L 4.96875 -1.515625 C 5.09375 -1.515625 5.15625 -1.453125 5.15625 -1.328125 L 5.15625 -0.1875 C 5.15625 -0.0625 5.09375 0 4.96875 0 L 0.75 0 C 0.632812 0 0.578125 -0.0625 0.578125 -0.1875 L 0.578125 -7.84375 C 0.578125 -7.96875 0.632812 -8.03125 0.75 -8.03125 L 4.96875 -8.03125 C 5.09375 -8.03125 5.15625 -7.96875 5.15625 -7.84375 Z M 5.15625 -7.84375 "/></g></g><g style="fill:#ffffff;fill-opacity:1;"><g transform="translate(157.767828, 14.671698)"><path style="stroke:none" d="M 4.203125 -8.03125 L 5.28125 -8.03125 C 5.40625 -8.03125 5.46875 -7.96875 5.46875 -7.84375 L 5.46875 -0.1875 C 5.46875 -0.0625 5.40625 0 5.28125 0 L 4.375 0 C 4.289062 0 4.222656 -0.0507812 4.171875 -0.15625 L 2.015625 -4.53125 L 2.015625 -0.1875 C 2.015625 -0.0625 1.953125 0 1.828125 0 L 0.75 0 C 0.632812 0 0.578125 -0.0625 0.578125 -0.1875 L 0.578125 -7.84375 C 0.578125 -7.96875 0.632812 -8.03125 0.75 -8.03125 L 1.65625 -8.03125 C 1.75 -8.03125 1.820312 -7.976562 1.875 -7.875 L 4.03125 -3.5 L 4.03125 -7.84375 C 4.03125 -7.96875 4.085938 -8.03125 4.203125 -8.03125 Z M 4.203125 -8.03125 "/></g></g><g style="fill:#ffffff;fill-opacity:1;"><g transform="translate(163.809073, 14.671698)"><path style="stroke:none" d="M 4.75 -8.03125 L 0.53125 -8.03125 C 0.40625 -8.03125 0.34375 -7.96875 0.34375 -7.84375 L 0.34375 -6.703125 C 0.34375 -6.578125 0.40625 -6.515625 0.53125 -6.515625 L 1.859375 -6.515625 L 1.859375 -0.1875 C 1.859375 -0.0625 1.921875 0 2.046875 0 L 3.234375 0 C 3.359375 0 3.421875 -0.0625 3.421875 -0.1875 L 3.421875 -6.515625 L 4.75 -6.515625 C 4.875 -6.515625 4.9375 -6.578125 4.9375 -6.703125 L 4.9375 -7.84375 C 4.9375 -7.96875 4.875 -8.03125 4.75 -8.03125 Z M 4.75 -8.03125 "/></g></g></g></svg>