<svg xmlns="http://www.w3.org/2000/svg" xmlns:xlink="http://www.w3.org/1999/xlink" width="500" zoomAndPan="magnify" viewBox="0 0 375 374.999991" height="500" preserveAspectRatio="xMidYMid meet" version="1.2"><defs><clipPath id="800b909415"><path d="M 154.363281 169 L 167 169 L 167 190 L 154.363281 190 Z M 154.363281 169 "/></clipPath><clipPath id="b4d38da2e3"><path d="M 208.519531 169.203125 L 220.363281 169.203125 L 220.363281 190 L 208.519531 190 Z M 208.519531 169.203125 "/></clipPath><clipPath id="88fc598e8e"><path d="M 175 125.480469 L 200 125.480469 L 200 140 L 175 140 Z M 175 125.480469 "/></clipPath><clipPath id="0e950d4637"><path d="M 178.054688 187.347656 L 196.671875 187.347656 L 196.671875 195.179688 L 178.054688 195.179688 Z M 178.054688 187.347656 "/></clipPath></defs><g id="7c03395834"><g clip-rule="nonzero" clip-path="url(#800b909415)"><path style=" stroke:none;fill-rule:nonzero;fill:#000000;fill-opacity:1;" d="M 166.074219 176.160156 L 166.074219 189.75 L 154.363281 182.957031 L 154.363281 169.367188 L 166.074219 176.160156 "/></g><path style=" stroke:none;fill-rule:nonzero;fill:#000000;fill-opacity:1;" d="M 181.347656 169.367188 L 181.347656 182.957031 L 169.636719 189.75 L 169.636719 176.160156 L 181.347656 169.367188 "/><path style=" stroke:none;fill-rule:nonzero;fill:#000000;fill-opacity:1;" d="M 179.566406 166.261719 L 167.855469 173.058594 L 156.144531 166.261719 L 167.855469 159.46875 L 179.566406 166.261719 "/><path style=" stroke:none;fill-rule:nonzero;fill:#000000;fill-opacity:1;" d="M 205.117188 176.160156 L 205.117188 189.75 L 193.40625 182.957031 L 193.40625 169.367188 L 205.117188 176.160156 "/><g clip-rule="nonzero" clip-path="url(#b4d38da2e3)"><path style=" stroke:none;fill-rule:nonzero;fill:#000000;fill-opacity:1;" d="M 220.390625 169.367188 L 220.390625 182.957031 L 208.679688 189.75 L 208.679688 176.160156 L 220.390625 169.367188 "/></g><path style=" stroke:none;fill-rule:nonzero;fill:#000000;fill-opacity:1;" d="M 218.609375 166.261719 L 206.898438 173.058594 L 195.1875 166.261719 L 206.898438 159.46875 L 218.609375 166.261719 "/><path style=" stroke:none;fill-rule:nonzero;fill:#000000;fill-opacity:1;" d="M 185.59375 142.230469 L 185.59375 155.820312 L 173.886719 149.027344 L 173.886719 135.4375 L 185.59375 142.230469 "/><path style=" stroke:none;fill-rule:nonzero;fill:#000000;fill-opacity:1;" d="M 200.871094 135.4375 L 200.871094 149.027344 L 189.15625 155.820312 L 189.15625 142.230469 L 200.871094 135.4375 "/><g clip-rule="nonzero" clip-path="url(#88fc598e8e)"><path style=" stroke:none;fill-rule:nonzero;fill:#000000;fill-opacity:1;" d="M 199.085938 132.332031 L 187.378906 139.132812 L 175.667969 132.332031 L 187.378906 125.539062 L 199.085938 132.332031 "/></g><path style=" stroke:none;fill-rule:nonzero;fill:#000000;fill-opacity:1;" d="M 164.394531 156.210938 L 164.394531 150.3125 L 169.316406 147.457031 L 169.316406 142.257812 L 161.035156 147.0625 C 160.34375 147.464844 159.914062 148.207031 159.914062 149.011719 L 159.914062 158.808594 L 164.394531 156.210938 "/><path style=" stroke:none;fill-rule:nonzero;fill:#000000;fill-opacity:1;" d="M 205.4375 147.457031 L 210.359375 150.3125 L 210.359375 156.210938 L 214.835938 158.808594 L 214.835938 149.011719 C 214.835938 148.207031 214.410156 147.464844 213.71875 147.0625 L 205.4375 142.257812 L 205.4375 147.457031 "/><g clip-rule="nonzero" clip-path="url(#0e950d4637)"><path style=" stroke:none;fill-rule:nonzero;fill:#000000;fill-opacity:1;" d="M 192.132812 187.566406 L 187.378906 190.328125 L 182.621094 187.566406 L 178.136719 190.164062 L 186.257812 194.875 C 186.605469 195.078125 186.988281 195.179688 187.378906 195.179688 C 187.765625 195.179688 188.152344 195.078125 188.496094 194.875 L 196.617188 190.164062 L 192.132812 187.566406 "/></g><g style="fill:#000000;fill-opacity:1;"><g transform="translate(118.947924, 252.978996)"><path style="stroke:none" d="M 1.28125 0 L 1.28125 -9.65625 L 4.375 -9.65625 C 5.550781 -9.65625 6.441406 -9.4375 7.046875 -9 C 7.648438 -8.570312 7.953125 -7.953125 7.953125 -7.140625 C 7.953125 -6.628906 7.816406 -6.191406 7.546875 -5.828125 C 7.285156 -5.460938 6.828125 -5.160156 6.171875 -4.921875 C 6.546875 -4.835938 6.863281 -4.71875 7.125 -4.5625 C 7.382812 -4.414062 7.59375 -4.238281 7.75 -4.03125 C 7.90625 -3.832031 8.019531 -3.609375 8.09375 -3.359375 C 8.164062 -3.117188 8.203125 -2.863281 8.203125 -2.59375 C 8.203125 -1.726562 7.890625 -1.078125 7.265625 -0.640625 C 6.640625 -0.210938 5.710938 0 4.484375 0 Z M 2.515625 -1.03125 L 4.46875 -1.03125 C 5.269531 -1.03125 5.878906 -1.160156 6.296875 -1.421875 C 6.722656 -1.691406 6.9375 -2.101562 6.9375 -2.65625 C 6.9375 -3.0625 6.832031 -3.390625 6.625 -3.640625 C 6.414062 -3.890625 6.132812 -4.070312 5.78125 -4.1875 C 5.4375 -4.300781 5.046875 -4.359375 4.609375 -4.359375 L 2.515625 -4.359375 Z M 2.515625 -5.40625 L 4.609375 -5.40625 C 4.867188 -5.40625 5.125 -5.429688 5.375 -5.484375 C 5.625 -5.535156 5.851562 -5.617188 6.0625 -5.734375 C 6.269531 -5.859375 6.4375 -6.019531 6.5625 -6.21875 C 6.695312 -6.425781 6.765625 -6.679688 6.765625 -6.984375 C 6.765625 -7.546875 6.546875 -7.960938 6.109375 -8.234375 C 5.679688 -8.503906 5.125 -8.640625 4.4375 -8.640625 L 2.515625 -8.640625 Z M 2.515625 -5.40625 "/></g></g><g style="fill:#000000;fill-opacity:1;"><g transform="translate(129.233793, 252.978996)"><path style="stroke:none" d="M 2.765625 0.09375 C 2.390625 0.09375 2.085938 0.0390625 1.859375 -0.0625 C 1.628906 -0.164062 1.453125 -0.300781 1.328125 -0.46875 C 1.210938 -0.644531 1.128906 -0.847656 1.078125 -1.078125 C 1.035156 -1.304688 1.015625 -1.539062 1.015625 -1.78125 L 1.015625 -9.921875 L 2.234375 -9.921875 L 2.234375 -1.890625 C 2.234375 -1.546875 2.300781 -1.285156 2.4375 -1.109375 C 2.570312 -0.941406 2.765625 -0.847656 3.015625 -0.828125 L 3.390625 -0.828125 L 3.390625 -0.015625 C 3.285156 0.015625 3.175781 0.0390625 3.0625 0.0625 C 2.957031 0.0820312 2.859375 0.09375 2.765625 0.09375 Z M 2.765625 0.09375 "/></g></g><g style="fill:#000000;fill-opacity:1;"><g transform="translate(134.540956, 252.978996)"><path style="stroke:none" d="M 3.765625 0.140625 C 3.128906 0.140625 2.570312 0.00390625 2.09375 -0.265625 C 1.613281 -0.546875 1.242188 -0.953125 0.984375 -1.484375 C 0.722656 -2.015625 0.59375 -2.660156 0.59375 -3.421875 C 0.59375 -4.148438 0.710938 -4.785156 0.953125 -5.328125 C 1.203125 -5.867188 1.5625 -6.289062 2.03125 -6.59375 C 2.507812 -6.894531 3.085938 -7.046875 3.765625 -7.046875 C 4.398438 -7.046875 4.953125 -6.90625 5.421875 -6.625 C 5.890625 -6.34375 6.253906 -5.929688 6.515625 -5.390625 C 6.773438 -4.859375 6.90625 -4.203125 6.90625 -3.421875 C 6.90625 -2.722656 6.785156 -2.101562 6.546875 -1.5625 C 6.304688 -1.03125 5.953125 -0.613281 5.484375 -0.3125 C 5.023438 -0.0078125 4.453125 0.140625 3.765625 0.140625 Z M 3.765625 -0.84375 C 4.179688 -0.84375 4.53125 -0.945312 4.8125 -1.15625 C 5.101562 -1.363281 5.320312 -1.660156 5.46875 -2.046875 C 5.613281 -2.441406 5.6875 -2.910156 5.6875 -3.453125 C 5.6875 -3.941406 5.617188 -4.382812 5.484375 -4.78125 C 5.359375 -5.175781 5.15625 -5.488281 4.875 -5.71875 C 4.59375 -5.957031 4.222656 -6.078125 3.765625 -6.078125 C 3.347656 -6.078125 2.992188 -5.972656 2.703125 -5.765625 C 2.410156 -5.554688 2.191406 -5.253906 2.046875 -4.859375 C 1.898438 -4.472656 1.828125 -4.003906 1.828125 -3.453125 C 1.828125 -2.960938 1.890625 -2.519531 2.015625 -2.125 C 2.148438 -1.726562 2.359375 -1.414062 2.640625 -1.1875 C 2.929688 -0.957031 3.304688 -0.84375 3.765625 -0.84375 Z M 3.765625 -0.84375 "/></g></g><g style="fill:#000000;fill-opacity:1;"><g transform="translate(143.378598, 252.978996)"><path style="stroke:none" d="M 3.78125 -7.046875 C 4.269531 -7.046875 4.710938 -6.945312 5.109375 -6.75 C 5.503906 -6.5625 5.828125 -6.296875 6.078125 -5.953125 C 6.328125 -5.609375 6.484375 -5.195312 6.546875 -4.71875 L 5.453125 -4.71875 C 5.410156 -4.957031 5.316406 -5.175781 5.171875 -5.375 C 5.035156 -5.582031 4.847656 -5.742188 4.609375 -5.859375 C 4.367188 -5.984375 4.09375 -6.046875 3.78125 -6.046875 C 3.1875 -6.046875 2.703125 -5.832031 2.328125 -5.40625 C 1.960938 -4.976562 1.78125 -4.320312 1.78125 -3.4375 C 1.78125 -2.644531 1.953125 -2.007812 2.296875 -1.53125 C 2.640625 -1.050781 3.140625 -0.8125 3.796875 -0.8125 C 4.117188 -0.8125 4.394531 -0.867188 4.625 -0.984375 C 4.851562 -1.109375 5.039062 -1.269531 5.1875 -1.46875 C 5.332031 -1.675781 5.425781 -1.894531 5.46875 -2.125 L 6.546875 -2.125 C 6.484375 -1.664062 6.320312 -1.265625 6.0625 -0.921875 C 5.8125 -0.585938 5.488281 -0.328125 5.09375 -0.140625 C 4.707031 0.046875 4.269531 0.140625 3.78125 0.140625 C 3.15625 0.140625 2.601562 0.00390625 2.125 -0.265625 C 1.644531 -0.546875 1.269531 -0.945312 1 -1.46875 C 0.726562 -2 0.59375 -2.648438 0.59375 -3.421875 C 0.59375 -4.148438 0.71875 -4.78125 0.96875 -5.3125 C 1.21875 -5.851562 1.578125 -6.273438 2.046875 -6.578125 C 2.523438 -6.890625 3.101562 -7.046875 3.78125 -7.046875 Z M 3.78125 -7.046875 "/></g></g><g style="fill:#000000;fill-opacity:1;"><g transform="translate(151.915913, 252.978996)"><path style="stroke:none" d="M 7.09375 0 L 5.78125 0 L 3.609375 -3.46875 L 2.25 -2.0625 L 2.25 0 L 1.015625 0 L 1.015625 -9.921875 L 2.25 -9.921875 L 2.25 -3.453125 L 5.5 -6.90625 L 6.90625 -6.90625 L 4.421875 -4.28125 Z M 7.09375 0 "/></g></g><g style="fill:#000000;fill-opacity:1;"><g transform="translate(160.780254, 252.978996)"><path style="stroke:none" d=""/></g></g><g style="fill:#000000;fill-opacity:1;"><g transform="translate(165.193118, 252.978996)"><path style="stroke:none" d="M 4.828125 -9.796875 C 5.503906 -9.796875 6.101562 -9.648438 6.625 -9.359375 C 7.15625 -9.078125 7.582031 -8.703125 7.90625 -8.234375 C 8.226562 -7.765625 8.421875 -7.25 8.484375 -6.6875 L 7.15625 -6.6875 C 7.082031 -7.0625 6.945312 -7.398438 6.75 -7.703125 C 6.550781 -8.015625 6.289062 -8.257812 5.96875 -8.4375 C 5.644531 -8.625 5.253906 -8.71875 4.796875 -8.71875 C 4.210938 -8.71875 3.71875 -8.578125 3.3125 -8.296875 C 2.914062 -8.023438 2.613281 -7.601562 2.40625 -7.03125 C 2.195312 -6.46875 2.09375 -5.738281 2.09375 -4.84375 C 2.09375 -3.5 2.320312 -2.507812 2.78125 -1.875 C 3.238281 -1.25 3.910156 -0.9375 4.796875 -0.9375 C 5.253906 -0.9375 5.644531 -1.03125 5.96875 -1.21875 C 6.289062 -1.414062 6.550781 -1.675781 6.75 -2 C 6.945312 -2.320312 7.082031 -2.671875 7.15625 -3.046875 L 8.484375 -3.046875 C 8.429688 -2.628906 8.316406 -2.226562 8.140625 -1.84375 C 7.972656 -1.46875 7.738281 -1.128906 7.4375 -0.828125 C 7.144531 -0.535156 6.78125 -0.300781 6.34375 -0.125 C 5.90625 0.0507812 5.398438 0.140625 4.828125 0.140625 C 3.960938 0.140625 3.222656 -0.0546875 2.609375 -0.453125 C 1.992188 -0.859375 1.523438 -1.429688 1.203125 -2.171875 C 0.878906 -2.910156 0.71875 -3.804688 0.71875 -4.859375 C 0.71875 -5.910156 0.878906 -6.800781 1.203125 -7.53125 C 1.523438 -8.269531 1.988281 -8.832031 2.59375 -9.21875 C 3.207031 -9.601562 3.953125 -9.796875 4.828125 -9.796875 Z M 4.828125 -9.796875 "/></g></g><g style="fill:#000000;fill-opacity:1;"><g transform="translate(175.719256, 252.978996)"><path style="stroke:none" d="M 1.015625 0 L 1.015625 -9.921875 L 2.21875 -9.921875 L 2.21875 -5.890625 C 2.332031 -6.078125 2.488281 -6.253906 2.6875 -6.421875 C 2.882812 -6.597656 3.125 -6.738281 3.40625 -6.84375 C 3.6875 -6.945312 4.007812 -7 4.375 -7 C 4.832031 -7 5.242188 -6.914062 5.609375 -6.75 C 5.972656 -6.582031 6.257812 -6.34375 6.46875 -6.03125 C 6.6875 -5.726562 6.796875 -5.363281 6.796875 -4.9375 L 6.796875 0 L 5.5625 0 L 5.5625 -4.6875 C 5.5625 -5.101562 5.414062 -5.421875 5.125 -5.640625 C 4.84375 -5.867188 4.476562 -5.984375 4.03125 -5.984375 C 3.71875 -5.984375 3.425781 -5.929688 3.15625 -5.828125 C 2.882812 -5.734375 2.664062 -5.582031 2.5 -5.375 C 2.332031 -5.175781 2.25 -4.921875 2.25 -4.609375 L 2.25 0 Z M 1.015625 0 "/></g></g><g style="fill:#000000;fill-opacity:1;"><g transform="translate(184.75044, 252.978996)"><path style="stroke:none" d="M 2.9375 0.140625 C 2.488281 0.140625 2.09375 0.0625 1.75 -0.09375 C 1.40625 -0.257812 1.132812 -0.488281 0.9375 -0.78125 C 0.75 -1.082031 0.65625 -1.445312 0.65625 -1.875 C 0.65625 -2.632812 0.921875 -3.203125 1.453125 -3.578125 C 1.984375 -3.953125 2.84375 -4.15625 4.03125 -4.1875 L 5.265625 -4.21875 L 5.265625 -4.75 C 5.265625 -5.175781 5.132812 -5.507812 4.875 -5.75 C 4.625 -6 4.234375 -6.125 3.703125 -6.125 C 3.304688 -6.125 2.957031 -6.03125 2.65625 -5.84375 C 2.351562 -5.664062 2.160156 -5.367188 2.078125 -4.953125 L 0.984375 -4.953125 C 1.003906 -5.398438 1.128906 -5.78125 1.359375 -6.09375 C 1.585938 -6.40625 1.90625 -6.640625 2.3125 -6.796875 C 2.71875 -6.960938 3.203125 -7.046875 3.765625 -7.046875 C 4.359375 -7.046875 4.851562 -6.957031 5.25 -6.78125 C 5.65625 -6.613281 5.957031 -6.363281 6.15625 -6.03125 C 6.351562 -5.707031 6.453125 -5.304688 6.453125 -4.828125 L 6.453125 0 L 5.390625 0 L 5.3125 -1.296875 C 5.039062 -0.753906 4.695312 -0.378906 4.28125 -0.171875 C 3.875 0.0351562 3.425781 0.140625 2.9375 0.140625 Z M 3.3125 -0.75 C 3.539062 -0.75 3.769531 -0.789062 4 -0.875 C 4.226562 -0.96875 4.4375 -1.082031 4.625 -1.21875 C 4.820312 -1.363281 4.972656 -1.523438 5.078125 -1.703125 C 5.191406 -1.890625 5.253906 -2.078125 5.265625 -2.265625 L 5.265625 -3.453125 L 4.234375 -3.4375 C 3.710938 -3.425781 3.273438 -3.367188 2.921875 -3.265625 C 2.566406 -3.171875 2.300781 -3.019531 2.125 -2.8125 C 1.945312 -2.601562 1.859375 -2.328125 1.859375 -1.984375 C 1.859375 -1.597656 1.992188 -1.296875 2.265625 -1.078125 C 2.535156 -0.859375 2.882812 -0.75 3.3125 -0.75 Z M 3.3125 -0.75 "/></g></g><g style="fill:#000000;fill-opacity:1;"><g transform="translate(193.621453, 252.978996)"><path style="stroke:none" d="M 2.359375 -6.90625 L 2.359375 0 L 1.15625 0 L 1.15625 -6.90625 Z M 2.390625 -9.65625 L 2.390625 -8.375 L 1.125 -8.375 L 1.125 -9.65625 Z M 2.390625 -9.65625 "/></g></g><g style="fill:#000000;fill-opacity:1;"><g transform="translate(198.461446, 252.978996)"><path style="stroke:none" d="M 1.015625 0 L 1.015625 -6.90625 L 2.21875 -6.90625 L 2.21875 -5.90625 C 2.332031 -6.09375 2.488281 -6.269531 2.6875 -6.4375 C 2.882812 -6.613281 3.125 -6.75 3.40625 -6.84375 C 3.6875 -6.945312 4.007812 -7 4.375 -7 C 4.8125 -7 5.210938 -6.910156 5.578125 -6.734375 C 5.953125 -6.566406 6.25 -6.300781 6.46875 -5.9375 C 6.6875 -5.570312 6.796875 -5.097656 6.796875 -4.515625 L 6.796875 0 L 5.5625 0 L 5.5625 -4.390625 C 5.5625 -4.929688 5.421875 -5.332031 5.140625 -5.59375 C 4.859375 -5.851562 4.492188 -5.984375 4.046875 -5.984375 C 3.734375 -5.984375 3.441406 -5.929688 3.171875 -5.828125 C 2.898438 -5.734375 2.675781 -5.582031 2.5 -5.375 C 2.332031 -5.175781 2.25 -4.921875 2.25 -4.609375 L 2.25 0 Z M 1.015625 0 "/></g></g><g style="fill:#000000;fill-opacity:1;"><g transform="translate(207.499302, 252.978996)"><path style="stroke:none" d=""/></g></g><g style="fill:#000000;fill-opacity:1;"><g transform="translate(211.912167, 252.978996)"><path style="stroke:none" d="M 1.28125 0 L 1.28125 -9.65625 L 4.375 -9.65625 C 5.550781 -9.65625 6.441406 -9.4375 7.046875 -9 C 7.648438 -8.570312 7.953125 -7.953125 7.953125 -7.140625 C 7.953125 -6.628906 7.816406 -6.191406 7.546875 -5.828125 C 7.285156 -5.460938 6.828125 -5.160156 6.171875 -4.921875 C 6.546875 -4.835938 6.863281 -4.71875 7.125 -4.5625 C 7.382812 -4.414062 7.59375 -4.238281 7.75 -4.03125 C 7.90625 -3.832031 8.019531 -3.609375 8.09375 -3.359375 C 8.164062 -3.117188 8.203125 -2.863281 8.203125 -2.59375 C 8.203125 -1.726562 7.890625 -1.078125 7.265625 -0.640625 C 6.640625 -0.210938 5.710938 0 4.484375 0 Z M 2.515625 -1.03125 L 4.46875 -1.03125 C 5.269531 -1.03125 5.878906 -1.160156 6.296875 -1.421875 C 6.722656 -1.691406 6.9375 -2.101562 6.9375 -2.65625 C 6.9375 -3.0625 6.832031 -3.390625 6.625 -3.640625 C 6.414062 -3.890625 6.132812 -4.070312 5.78125 -4.1875 C 5.4375 -4.300781 5.046875 -4.359375 4.609375 -4.359375 L 2.515625 -4.359375 Z M 2.515625 -5.40625 L 4.609375 -5.40625 C 4.867188 -5.40625 5.125 -5.429688 5.375 -5.484375 C 5.625 -5.535156 5.851562 -5.617188 6.0625 -5.734375 C 6.269531 -5.859375 6.4375 -6.019531 6.5625 -6.21875 C 6.695312 -6.425781 6.765625 -6.679688 6.765625 -6.984375 C 6.765625 -7.546875 6.546875 -7.960938 6.109375 -8.234375 C 5.679688 -8.503906 5.125 -8.640625 4.4375 -8.640625 L 2.515625 -8.640625 Z M 2.515625 -5.40625 "/></g></g><g style="fill:#000000;fill-opacity:1;"><g transform="translate(222.198036, 252.978996)"><path style="stroke:none" d="M 2.9375 0.140625 C 2.488281 0.140625 2.09375 0.0625 1.75 -0.09375 C 1.40625 -0.257812 1.132812 -0.488281 0.9375 -0.78125 C 0.75 -1.082031 0.65625 -1.445312 0.65625 -1.875 C 0.65625 -2.632812 0.921875 -3.203125 1.453125 -3.578125 C 1.984375 -3.953125 2.84375 -4.15625 4.03125 -4.1875 L 5.265625 -4.21875 L 5.265625 -4.75 C 5.265625 -5.175781 5.132812 -5.507812 4.875 -5.75 C 4.625 -6 4.234375 -6.125 3.703125 -6.125 C 3.304688 -6.125 2.957031 -6.03125 2.65625 -5.84375 C 2.351562 -5.664062 2.160156 -5.367188 2.078125 -4.953125 L 0.984375 -4.953125 C 1.003906 -5.398438 1.128906 -5.78125 1.359375 -6.09375 C 1.585938 -6.40625 1.90625 -6.640625 2.3125 -6.796875 C 2.71875 -6.960938 3.203125 -7.046875 3.765625 -7.046875 C 4.359375 -7.046875 4.851562 -6.957031 5.25 -6.78125 C 5.65625 -6.613281 5.957031 -6.363281 6.15625 -6.03125 C 6.351562 -5.707031 6.453125 -5.304688 6.453125 -4.828125 L 6.453125 0 L 5.390625 0 L 5.3125 -1.296875 C 5.039062 -0.753906 4.695312 -0.378906 4.28125 -0.171875 C 3.875 0.0351562 3.425781 0.140625 2.9375 0.140625 Z M 3.3125 -0.75 C 3.539062 -0.75 3.769531 -0.789062 4 -0.875 C 4.226562 -0.96875 4.4375 -1.082031 4.625 -1.21875 C 4.820312 -1.363281 4.972656 -1.523438 5.078125 -1.703125 C 5.191406 -1.890625 5.253906 -2.078125 5.265625 -2.265625 L 5.265625 -3.453125 L 4.234375 -3.4375 C 3.710938 -3.425781 3.273438 -3.367188 2.921875 -3.265625 C 2.566406 -3.171875 2.300781 -3.019531 2.125 -2.8125 C 1.945312 -2.601562 1.859375 -2.328125 1.859375 -1.984375 C 1.859375 -1.597656 1.992188 -1.296875 2.265625 -1.078125 C 2.535156 -0.859375 2.882812 -0.75 3.3125 -0.75 Z M 3.3125 -0.75 "/></g></g><g style="fill:#000000;fill-opacity:1;"><g transform="translate(231.069049, 252.978996)"><path style="stroke:none" d="M 3.46875 0.140625 C 2.988281 0.140625 2.539062 0.0664062 2.125 -0.078125 C 1.71875 -0.234375 1.378906 -0.46875 1.109375 -0.78125 C 0.835938 -1.101562 0.664062 -1.515625 0.59375 -2.015625 L 1.71875 -2.015625 C 1.78125 -1.742188 1.890625 -1.515625 2.046875 -1.328125 C 2.210938 -1.148438 2.414062 -1.015625 2.65625 -0.921875 C 2.90625 -0.828125 3.175781 -0.78125 3.46875 -0.78125 C 3.925781 -0.78125 4.296875 -0.867188 4.578125 -1.046875 C 4.867188 -1.222656 5.015625 -1.488281 5.015625 -1.84375 C 5.015625 -2.101562 4.9375 -2.304688 4.78125 -2.453125 C 4.632812 -2.609375 4.40625 -2.722656 4.09375 -2.796875 L 2.671875 -3.15625 C 2.117188 -3.289062 1.671875 -3.5 1.328125 -3.78125 C 0.992188 -4.0625 0.828125 -4.457031 0.828125 -4.96875 C 0.828125 -5.375 0.925781 -5.726562 1.125 -6.03125 C 1.320312 -6.34375 1.613281 -6.585938 2 -6.765625 C 2.394531 -6.953125 2.882812 -7.046875 3.46875 -7.046875 C 4.21875 -7.046875 4.820312 -6.875 5.28125 -6.53125 C 5.738281 -6.195312 5.976562 -5.707031 6 -5.0625 L 4.90625 -5.0625 C 4.863281 -5.382812 4.71875 -5.640625 4.46875 -5.828125 C 4.21875 -6.023438 3.878906 -6.125 3.453125 -6.125 C 3.015625 -6.125 2.65625 -6.035156 2.375 -5.859375 C 2.101562 -5.691406 1.96875 -5.421875 1.96875 -5.046875 C 1.96875 -4.804688 2.0625 -4.613281 2.25 -4.46875 C 2.445312 -4.332031 2.738281 -4.21875 3.125 -4.125 L 4.515625 -3.78125 C 4.828125 -3.6875 5.085938 -3.570312 5.296875 -3.4375 C 5.503906 -3.300781 5.671875 -3.144531 5.796875 -2.96875 C 5.921875 -2.800781 6.003906 -2.625 6.046875 -2.4375 C 6.097656 -2.257812 6.125 -2.085938 6.125 -1.921875 C 6.125 -1.492188 6.019531 -1.128906 5.8125 -0.828125 C 5.601562 -0.523438 5.300781 -0.285156 4.90625 -0.109375 C 4.507812 0.0546875 4.03125 0.140625 3.46875 0.140625 Z M 3.46875 0.140625 "/></g></g><g style="fill:#000000;fill-opacity:1;"><g transform="translate(239.232634, 252.978996)"><path style="stroke:none" d="M 1.90625 -3.171875 C 1.90625 -2.734375 1.976562 -2.335938 2.125 -1.984375 C 2.269531 -1.628906 2.488281 -1.347656 2.78125 -1.140625 C 3.070312 -0.929688 3.441406 -0.828125 3.890625 -0.828125 C 4.335938 -0.828125 4.71875 -0.925781 5.03125 -1.125 C 5.351562 -1.332031 5.554688 -1.628906 5.640625 -2.015625 L 6.8125 -2.015625 C 6.726562 -1.546875 6.539062 -1.148438 6.25 -0.828125 C 5.957031 -0.515625 5.609375 -0.273438 5.203125 -0.109375 C 4.796875 0.0546875 4.367188 0.140625 3.921875 0.140625 C 3.273438 0.140625 2.707031 0 2.21875 -0.28125 C 1.726562 -0.5625 1.34375 -0.960938 1.0625 -1.484375 C 0.789062 -2.015625 0.65625 -2.648438 0.65625 -3.390625 C 0.65625 -4.109375 0.78125 -4.742188 1.03125 -5.296875 C 1.28125 -5.847656 1.640625 -6.273438 2.109375 -6.578125 C 2.585938 -6.890625 3.160156 -7.046875 3.828125 -7.046875 C 4.472656 -7.046875 5.019531 -6.90625 5.46875 -6.625 C 5.925781 -6.34375 6.269531 -5.945312 6.5 -5.4375 C 6.738281 -4.925781 6.859375 -4.320312 6.859375 -3.625 L 6.859375 -3.171875 Z M 1.90625 -4 L 5.671875 -4 C 5.671875 -4.394531 5.601562 -4.75 5.46875 -5.0625 C 5.332031 -5.382812 5.125 -5.640625 4.84375 -5.828125 C 4.570312 -6.015625 4.234375 -6.109375 3.828125 -6.109375 C 3.390625 -6.109375 3.03125 -6.003906 2.75 -5.796875 C 2.46875 -5.585938 2.253906 -5.320312 2.109375 -5 C 1.972656 -4.675781 1.90625 -4.34375 1.90625 -4 Z M 1.90625 -4 "/></g></g><g style="fill:#000000;fill-opacity:1;"><g transform="translate(248.083631, 252.978996)"><path style="stroke:none" d="M 3.515625 0.140625 C 2.617188 0.140625 1.90625 -0.164062 1.375 -0.78125 C 0.851562 -1.394531 0.59375 -2.296875 0.59375 -3.484375 C 0.59375 -4.203125 0.695312 -4.828125 0.90625 -5.359375 C 1.125 -5.890625 1.441406 -6.300781 1.859375 -6.59375 C 2.273438 -6.894531 2.796875 -7.046875 3.421875 -7.046875 C 3.753906 -7.046875 4.046875 -7 4.296875 -6.90625 C 4.554688 -6.820312 4.78125 -6.71875 4.96875 -6.59375 C 5.15625 -6.46875 5.304688 -6.332031 5.421875 -6.1875 C 5.535156 -6.050781 5.625 -5.925781 5.6875 -5.8125 L 5.6875 -9.921875 L 6.921875 -9.921875 L 6.921875 0 L 5.984375 0 L 5.84375 -1.421875 C 5.800781 -1.285156 5.726562 -1.128906 5.625 -0.953125 C 5.53125 -0.773438 5.394531 -0.601562 5.21875 -0.4375 C 5.039062 -0.269531 4.8125 -0.128906 4.53125 -0.015625 C 4.257812 0.0859375 3.921875 0.140625 3.515625 0.140625 Z M 3.734375 -0.8125 C 4.429688 -0.8125 4.929688 -1.023438 5.234375 -1.453125 C 5.535156 -1.878906 5.6875 -2.578125 5.6875 -3.546875 C 5.675781 -4.078125 5.601562 -4.53125 5.46875 -4.90625 C 5.34375 -5.289062 5.140625 -5.582031 4.859375 -5.78125 C 4.585938 -5.976562 4.222656 -6.078125 3.765625 -6.078125 C 3.191406 -6.078125 2.726562 -5.875 2.375 -5.46875 C 2.019531 -5.0625 1.84375 -4.421875 1.84375 -3.546875 C 1.84375 -2.679688 2.003906 -2.007812 2.328125 -1.53125 C 2.648438 -1.050781 3.117188 -0.8125 3.734375 -0.8125 Z M 3.734375 -0.8125 "/></g></g><g style="fill:#000000;fill-opacity:1;"><g transform="translate(53.978274, 221.331122)"><path style="stroke:none" d="M 4.5 -18.53125 L 7.09375 -18.53125 C 8.1875 -18.53125 9.015625 -18.25 9.578125 -17.6875 C 10.140625 -17.125 10.421875 -16.296875 10.421875 -15.203125 L 10.421875 -12.75 C 10.421875 -12.5 10.300781 -12.375 10.0625 -12.375 L 7.640625 -12.375 C 7.398438 -12.375 7.28125 -12.5 7.28125 -12.75 L 7.28125 -14.546875 C 7.28125 -15.171875 6.96875 -15.484375 6.34375 -15.484375 L 5.234375 -15.484375 C 4.617188 -15.484375 4.3125 -15.171875 4.3125 -14.546875 L 4.3125 -11.359375 L 9.828125 -9.546875 C 10.222656 -9.378906 10.421875 -9.09375 10.421875 -8.6875 L 10.421875 -3.34375 C 10.421875 -2.257812 10.140625 -1.429688 9.578125 -0.859375 C 9.015625 -0.285156 8.1875 0 7.09375 0 L 4.5 0 C 3.414062 0 2.585938 -0.285156 2.015625 -0.859375 C 1.441406 -1.429688 1.15625 -2.257812 1.15625 -3.34375 L 1.15625 -5.765625 C 1.15625 -6.015625 1.28125 -6.140625 1.53125 -6.140625 L 3.9375 -6.140625 C 4.1875 -6.140625 4.3125 -6.015625 4.3125 -5.765625 L 4.3125 -3.984375 C 4.3125 -3.367188 4.617188 -3.0625 5.234375 -3.0625 L 6.34375 -3.0625 C 6.96875 -3.0625 7.28125 -3.367188 7.28125 -3.984375 L 7.28125 -7.0625 L 1.78125 -8.875 C 1.363281 -9.007812 1.15625 -9.296875 1.15625 -9.734375 L 1.15625 -15.203125 C 1.15625 -16.296875 1.441406 -17.125 2.015625 -17.6875 C 2.585938 -18.25 3.414062 -18.53125 4.5 -18.53125 Z M 4.5 -18.53125 "/></g></g><g style="fill:#000000;fill-opacity:1;"><g transform="translate(65.562292, 221.331122)"><path style="stroke:none" d="M 9.59375 -16.21875 L 1.0625 -16.21875 C 0.8125 -16.21875 0.6875 -16.09375 0.6875 -15.84375 L 0.6875 -13.53125 C 0.6875 -13.28125 0.8125 -13.15625 1.0625 -13.15625 L 3.75 -13.15625 L 3.75 -0.375 C 3.75 -0.125 3.875 0 4.125 0 L 6.53125 0 C 6.78125 0 6.90625 -0.125 6.90625 -0.375 L 6.90625 -13.15625 L 9.59375 -13.15625 C 9.84375 -13.15625 9.96875 -13.28125 9.96875 -13.53125 L 9.96875 -15.84375 C 9.96875 -16.09375 9.84375 -16.21875 9.59375 -16.21875 Z M 9.59375 -16.21875 "/></g></g><g style="fill:#000000;fill-opacity:1;"><g transform="translate(76.219579, 221.331122)"><path style="stroke:none" d="M 7.828125 -16.21875 L 9.96875 -16.21875 C 10.09375 -16.21875 10.195312 -16.171875 10.28125 -16.078125 C 10.375 -15.984375 10.421875 -15.875 10.421875 -15.75 L 10.421875 -3.34375 C 10.421875 -2.257812 10.140625 -1.429688 9.578125 -0.859375 C 9.015625 -0.285156 8.1875 0 7.09375 0 L 4.5 0 C 3.414062 0 2.585938 -0.285156 2.015625 -0.859375 C 1.441406 -1.429688 1.15625 -2.257812 1.15625 -3.34375 L 1.15625 -15.75 C 1.15625 -15.875 1.203125 -15.984375 1.296875 -16.078125 C 1.390625 -16.171875 1.5 -16.21875 1.625 -16.21875 L 3.84375 -16.21875 C 3.96875 -16.21875 4.078125 -16.171875 4.171875 -16.078125 C 4.265625 -15.984375 4.3125 -15.875 4.3125 -15.75 L 4.3125 -3.984375 C 4.3125 -3.367188 4.617188 -3.0625 5.234375 -3.0625 L 6.4375 -3.0625 C 7.0625 -3.0625 7.375 -3.367188 7.375 -3.984375 L 7.375 -15.75 C 7.375 -15.875 7.414062 -15.984375 7.5 -16.078125 C 7.59375 -16.171875 7.703125 -16.21875 7.828125 -16.21875 Z M 7.828125 -16.21875 "/></g></g><g style="fill:#000000;fill-opacity:1;"><g transform="translate(87.803597, 221.331122)"><path style="stroke:none" d="M 1.15625 -0.375 L 1.15625 -15.84375 C 1.15625 -16.09375 1.28125 -16.21875 1.53125 -16.21875 L 7.09375 -16.21875 C 8.1875 -16.21875 9.015625 -15.929688 9.578125 -15.359375 C 10.140625 -14.785156 10.421875 -13.953125 10.421875 -12.859375 L 10.421875 -3.34375 C 10.421875 -2.257812 10.140625 -1.429688 9.578125 -0.859375 C 9.015625 -0.285156 8.1875 0 7.09375 0 L 1.53125 0 C 1.28125 0 1.15625 -0.125 1.15625 -0.375 Z M 4.3125 -3.0625 L 6.4375 -3.0625 C 7.0625 -3.0625 7.375 -3.367188 7.375 -3.984375 L 7.375 -12.21875 C 7.375 -12.84375 7.0625 -13.15625 6.4375 -13.15625 L 4.3125 -13.15625 Z M 4.3125 -3.0625 "/></g></g><g style="fill:#000000;fill-opacity:1;"><g transform="translate(99.387615, 221.331122)"><path style="stroke:none" d="M 10.40625 -15.84375 L 10.40625 -13.53125 C 10.40625 -13.269531 10.28125 -13.140625 10.03125 -13.140625 L 4.3125 -13.140625 L 4.3125 -9.5625 L 8.671875 -9.5625 C 8.910156 -9.5625 9.03125 -9.429688 9.03125 -9.171875 L 9.03125 -6.875 C 9.03125 -6.613281 8.910156 -6.484375 8.671875 -6.484375 L 4.3125 -6.484375 L 4.3125 -3.0625 L 10.03125 -3.0625 C 10.28125 -3.0625 10.40625 -2.9375 10.40625 -2.6875 L 10.40625 -0.375 C 10.40625 -0.125 10.28125 0 10.03125 0 L 1.5 0 C 1.269531 0 1.15625 -0.125 1.15625 -0.375 L 1.15625 -15.84375 C 1.15625 -16.09375 1.269531 -16.21875 1.5 -16.21875 L 10.03125 -16.21875 C 10.28125 -16.21875 10.40625 -16.09375 10.40625 -15.84375 Z M 10.40625 -15.84375 "/></g></g><g style="fill:#000000;fill-opacity:1;"><g transform="translate(110.948458, 221.331122)"><path style="stroke:none" d="M 8.5 -16.21875 L 10.6875 -16.21875 C 10.925781 -16.21875 11.046875 -16.09375 11.046875 -15.84375 L 11.046875 -0.375 C 11.046875 -0.125 10.925781 0 10.6875 0 L 8.859375 0 C 8.671875 0 8.53125 -0.0976562 8.4375 -0.296875 L 4.078125 -9.15625 L 4.078125 -0.375 C 4.078125 -0.125 3.953125 0 3.703125 0 L 1.53125 0 C 1.28125 0 1.15625 -0.125 1.15625 -0.375 L 1.15625 -15.84375 C 1.15625 -16.09375 1.28125 -16.21875 1.53125 -16.21875 L 3.359375 -16.21875 C 3.546875 -16.21875 3.6875 -16.117188 3.78125 -15.921875 L 8.140625 -7.0625 L 8.140625 -15.84375 C 8.140625 -16.09375 8.257812 -16.21875 8.5 -16.21875 Z M 8.5 -16.21875 "/></g></g><g style="fill:#000000;fill-opacity:1;"><g transform="translate(123.15801, 221.331122)"><path style="stroke:none" d="M 9.59375 -16.21875 L 1.0625 -16.21875 C 0.8125 -16.21875 0.6875 -16.09375 0.6875 -15.84375 L 0.6875 -13.53125 C 0.6875 -13.28125 0.8125 -13.15625 1.0625 -13.15625 L 3.75 -13.15625 L 3.75 -0.375 C 3.75 -0.125 3.875 0 4.125 0 L 6.53125 0 C 6.78125 0 6.90625 -0.125 6.90625 -0.375 L 6.90625 -13.15625 L 9.59375 -13.15625 C 9.84375 -13.15625 9.96875 -13.28125 9.96875 -13.53125 L 9.96875 -15.84375 C 9.96875 -16.09375 9.84375 -16.21875 9.59375 -16.21875 Z M 9.59375 -16.21875 "/></g></g><g style="fill:#000000;fill-opacity:1;"><g transform="translate(133.815297, 221.331122)"><path style="stroke:none" d=""/></g></g><g style="fill:#000000;fill-opacity:1;"><g transform="translate(139.6073, 221.331122)"><path style="stroke:none" d="M 1.15625 -0.375 L 1.15625 -18.171875 C 1.15625 -18.410156 1.28125 -18.53125 1.53125 -18.53125 L 7.09375 -18.53125 C 8.1875 -18.53125 9.015625 -18.242188 9.578125 -17.671875 C 10.140625 -17.109375 10.421875 -16.273438 10.421875 -15.171875 L 10.421875 -3.34375 C 10.421875 -2.257812 10.140625 -1.429688 9.578125 -0.859375 C 9.015625 -0.285156 8.1875 0 7.09375 0 L 1.53125 0 C 1.28125 0 1.15625 -0.125 1.15625 -0.375 Z M 4.3125 -3.0625 L 6.4375 -3.0625 C 7.0625 -3.0625 7.375 -3.367188 7.375 -3.984375 L 7.375 -14.53125 C 7.375 -15.164062 7.0625 -15.484375 6.4375 -15.484375 L 4.3125 -15.484375 Z M 4.3125 -3.0625 "/></g></g><g style="fill:#000000;fill-opacity:1;"><g transform="translate(151.191318, 221.331122)"><path style="stroke:none" d="M 12.09375 0 L 9.84375 0 C 9.644531 0 9.523438 -0.109375 9.484375 -0.328125 L 8.734375 -3.25 L 4.375 -3.25 L 3.65625 -0.328125 C 3.613281 -0.109375 3.492188 0 3.296875 0 L 1.015625 0 C 0.742188 0 0.644531 -0.128906 0.71875 -0.390625 L 4.5625 -15.890625 C 4.613281 -16.109375 4.742188 -16.21875 4.953125 -16.21875 L 8.171875 -16.21875 C 8.390625 -16.21875 8.523438 -16.109375 8.578125 -15.890625 L 12.421875 -0.390625 C 12.492188 -0.128906 12.382812 0 12.09375 0 Z M 8.015625 -5.9375 L 6.5625 -12.234375 L 5.09375 -5.9375 Z M 8.015625 -5.9375 "/></g></g><g style="fill:#000000;fill-opacity:1;"><g transform="translate(164.32759, 221.331122)"><path style="stroke:none" d="M 9.59375 -16.21875 L 1.0625 -16.21875 C 0.8125 -16.21875 0.6875 -16.09375 0.6875 -15.84375 L 0.6875 -13.53125 C 0.6875 -13.28125 0.8125 -13.15625 1.0625 -13.15625 L 3.75 -13.15625 L 3.75 -0.375 C 3.75 -0.125 3.875 0 4.125 0 L 6.53125 0 C 6.78125 0 6.90625 -0.125 6.90625 -0.375 L 6.90625 -13.15625 L 9.59375 -13.15625 C 9.84375 -13.15625 9.96875 -13.28125 9.96875 -13.53125 L 9.96875 -15.84375 C 9.96875 -16.09375 9.84375 -16.21875 9.59375 -16.21875 Z M 9.59375 -16.21875 "/></g></g><g style="fill:#000000;fill-opacity:1;"><g transform="translate(174.984877, 221.331122)"><path style="stroke:none" d="M 12.09375 0 L 9.84375 0 C 9.644531 0 9.523438 -0.109375 9.484375 -0.328125 L 8.734375 -3.25 L 4.375 -3.25 L 3.65625 -0.328125 C 3.613281 -0.109375 3.492188 0 3.296875 0 L 1.015625 0 C 0.742188 0 0.644531 -0.128906 0.71875 -0.390625 L 4.5625 -15.890625 C 4.613281 -16.109375 4.742188 -16.21875 4.953125 -16.21875 L 8.171875 -16.21875 C 8.390625 -16.21875 8.523438 -16.109375 8.578125 -15.890625 L 12.421875 -0.390625 C 12.492188 -0.128906 12.382812 0 12.09375 0 Z M 8.015625 -5.9375 L 6.5625 -12.234375 L 5.09375 -5.9375 Z M 8.015625 -5.9375 "/></g></g><g style="fill:#000000;fill-opacity:1;"><g transform="translate(188.121148, 221.331122)"><path style="stroke:none" d=""/></g></g><g style="fill:#000000;fill-opacity:1;"><g transform="translate(193.913152, 221.331122)"><path style="stroke:none" d="M 10.84375 -18.53125 L 13.90625 -18.53125 C 14.207031 -18.53125 14.359375 -18.378906 14.359375 -18.078125 L 14.359375 -0.46875 C 14.359375 -0.15625 14.207031 0 13.90625 0 L 11.75 0 C 11.4375 0 11.28125 -0.15625 11.28125 -0.46875 L 11.28125 -10.890625 L 11.125 -10.890625 L 8.828125 -0.421875 C 8.765625 -0.140625 8.59375 0 8.3125 0 L 7.1875 0 C 6.925781 0 6.753906 -0.140625 6.671875 -0.421875 L 4.375 -10.890625 L 4.21875 -10.890625 L 4.21875 -0.46875 C 4.21875 -0.15625 4.0625 0 3.75 0 L 1.625 0 C 1.3125 0 1.15625 -0.15625 1.15625 -0.46875 L 1.15625 -18.078125 C 1.15625 -18.378906 1.3125 -18.53125 1.625 -18.53125 L 4.6875 -18.53125 C 4.957031 -18.53125 5.125 -18.394531 5.1875 -18.125 L 7.765625 -6.578125 L 10.328125 -18.125 C 10.410156 -18.394531 10.582031 -18.53125 10.84375 -18.53125 Z M 10.84375 -18.53125 "/></g></g><g style="fill:#000000;fill-opacity:1;"><g transform="translate(209.435733, 221.331122)"><path style="stroke:none" d="M 12.09375 0 L 9.84375 0 C 9.644531 0 9.523438 -0.109375 9.484375 -0.328125 L 8.734375 -3.25 L 4.375 -3.25 L 3.65625 -0.328125 C 3.613281 -0.109375 3.492188 0 3.296875 0 L 1.015625 0 C 0.742188 0 0.644531 -0.128906 0.71875 -0.390625 L 4.5625 -15.890625 C 4.613281 -16.109375 4.742188 -16.21875 4.953125 -16.21875 L 8.171875 -16.21875 C 8.390625 -16.21875 8.523438 -16.109375 8.578125 -15.890625 L 12.421875 -0.390625 C 12.492188 -0.128906 12.382812 0 12.09375 0 Z M 8.015625 -5.9375 L 6.5625 -12.234375 L 5.09375 -5.9375 Z M 8.015625 -5.9375 "/></g></g><g style="fill:#000000;fill-opacity:1;"><g transform="translate(222.572005, 221.331122)"><path style="stroke:none" d="M 8.5 -16.21875 L 10.6875 -16.21875 C 10.925781 -16.21875 11.046875 -16.09375 11.046875 -15.84375 L 11.046875 -0.375 C 11.046875 -0.125 10.925781 0 10.6875 0 L 8.859375 0 C 8.671875 0 8.53125 -0.0976562 8.4375 -0.296875 L 4.078125 -9.15625 L 4.078125 -0.375 C 4.078125 -0.125 3.953125 0 3.703125 0 L 1.53125 0 C 1.28125 0 1.15625 -0.125 1.15625 -0.375 L 1.15625 -15.84375 C 1.15625 -16.09375 1.28125 -16.21875 1.53125 -16.21875 L 3.359375 -16.21875 C 3.546875 -16.21875 3.6875 -16.117188 3.78125 -15.921875 L 8.140625 -7.0625 L 8.140625 -15.84375 C 8.140625 -16.09375 8.257812 -16.21875 8.5 -16.21875 Z M 8.5 -16.21875 "/></g></g><g style="fill:#000000;fill-opacity:1;"><g transform="translate(234.781557, 221.331122)"><path style="stroke:none" d="M 12.09375 0 L 9.84375 0 C 9.644531 0 9.523438 -0.109375 9.484375 -0.328125 L 8.734375 -3.25 L 4.375 -3.25 L 3.65625 -0.328125 C 3.613281 -0.109375 3.492188 0 3.296875 0 L 1.015625 0 C 0.742188 0 0.644531 -0.128906 0.71875 -0.390625 L 4.5625 -15.890625 C 4.613281 -16.109375 4.742188 -16.21875 4.953125 -16.21875 L 8.171875 -16.21875 C 8.390625 -16.21875 8.523438 -16.109375 8.578125 -15.890625 L 12.421875 -0.390625 C 12.492188 -0.128906 12.382812 0 12.09375 0 Z M 8.015625 -5.9375 L 6.5625 -12.234375 L 5.09375 -5.9375 Z M 8.015625 -5.9375 "/></g></g><g style="fill:#000000;fill-opacity:1;"><g transform="translate(247.917829, 221.331122)"><path style="stroke:none" d="M 1.15625 -3.34375 L 1.15625 -12.890625 C 1.15625 -13.984375 1.441406 -14.8125 2.015625 -15.375 C 2.585938 -15.9375 3.414062 -16.21875 4.5 -16.21875 L 7.09375 -16.21875 C 8.175781 -16.21875 9 -15.9375 9.5625 -15.375 C 10.132812 -14.8125 10.421875 -13.984375 10.421875 -12.890625 L 10.421875 -11.171875 C 10.421875 -10.921875 10.300781 -10.796875 10.0625 -10.796875 L 7.875 -10.796875 C 7.625 -10.796875 7.5 -10.921875 7.5 -11.171875 L 7.5 -12.296875 C 7.5 -12.921875 7.191406 -13.234375 6.578125 -13.234375 L 5.09375 -13.234375 C 4.476562 -13.234375 4.171875 -12.921875 4.171875 -12.296875 L 4.171875 -3.921875 C 4.171875 -3.296875 4.476562 -2.984375 5.09375 -2.984375 L 6.578125 -2.984375 C 7.191406 -2.984375 7.5 -3.296875 7.5 -3.921875 L 7.5 -5.9375 L 6.296875 -5.9375 C 6.054688 -5.9375 5.9375 -6.054688 5.9375 -6.296875 L 5.9375 -8.625 C 5.9375 -8.863281 6.054688 -8.984375 6.296875 -8.984375 L 10.0625 -8.984375 C 10.300781 -8.984375 10.421875 -8.863281 10.421875 -8.625 L 10.421875 -3.34375 C 10.421875 -2.257812 10.132812 -1.429688 9.5625 -0.859375 C 9 -0.285156 8.175781 0 7.09375 0 L 4.5 0 C 3.414062 0 2.585938 -0.285156 2.015625 -0.859375 C 1.441406 -1.429688 1.15625 -2.257812 1.15625 -3.34375 Z M 1.15625 -3.34375 "/></g></g><g style="fill:#000000;fill-opacity:1;"><g transform="translate(259.501835, 221.331122)"><path style="stroke:none" d="M 10.40625 -15.84375 L 10.40625 -13.53125 C 10.40625 -13.269531 10.28125 -13.140625 10.03125 -13.140625 L 4.3125 -13.140625 L 4.3125 -9.5625 L 8.671875 -9.5625 C 8.910156 -9.5625 9.03125 -9.429688 9.03125 -9.171875 L 9.03125 -6.875 C 9.03125 -6.613281 8.910156 -6.484375 8.671875 -6.484375 L 4.3125 -6.484375 L 4.3125 -3.0625 L 10.03125 -3.0625 C 10.28125 -3.0625 10.40625 -2.9375 10.40625 -2.6875 L 10.40625 -0.375 C 10.40625 -0.125 10.28125 0 10.03125 0 L 1.5 0 C 1.269531 0 1.15625 -0.125 1.15625 -0.375 L 1.15625 -15.84375 C 1.15625 -16.09375 1.269531 -16.21875 1.5 -16.21875 L 10.03125 -16.21875 C 10.28125 -16.21875 10.40625 -16.09375 10.40625 -15.84375 Z M 10.40625 -15.84375 "/></g></g><g style="fill:#000000;fill-opacity:1;"><g transform="translate(271.062702, 221.331122)"><path style="stroke:none" d="M 10.84375 -16.21875 L 13.90625 -16.21875 C 14.207031 -16.21875 14.359375 -16.0625 14.359375 -15.75 L 14.359375 -0.46875 C 14.359375 -0.15625 14.207031 0 13.90625 0 L 11.75 0 C 11.4375 0 11.28125 -0.15625 11.28125 -0.46875 L 11.28125 -9.5625 L 11.125 -9.5625 L 8.9375 -0.390625 C 8.863281 -0.128906 8.695312 0 8.4375 0 L 7.0625 0 C 6.800781 0 6.632812 -0.128906 6.5625 -0.390625 L 4.375 -9.5625 L 4.21875 -9.5625 L 4.21875 -0.46875 C 4.21875 -0.15625 4.0625 0 3.75 0 L 1.625 0 C 1.3125 0 1.15625 -0.15625 1.15625 -0.46875 L 1.15625 -15.75 C 1.15625 -16.0625 1.3125 -16.21875 1.625 -16.21875 L 4.6875 -16.21875 C 4.945312 -16.21875 5.113281 -16.085938 5.1875 -15.828125 L 7.765625 -5.484375 L 10.328125 -15.828125 C 10.410156 -16.085938 10.582031 -16.21875 10.84375 -16.21875 Z M 10.84375 -16.21875 "/></g></g><g style="fill:#000000;fill-opacity:1;"><g transform="translate(286.585283, 221.331122)"><path style="stroke:none" d="M 10.40625 -15.84375 L 10.40625 -13.53125 C 10.40625 -13.269531 10.28125 -13.140625 10.03125 -13.140625 L 4.3125 -13.140625 L 4.3125 -9.5625 L 8.671875 -9.5625 C 8.910156 -9.5625 9.03125 -9.429688 9.03125 -9.171875 L 9.03125 -6.875 C 9.03125 -6.613281 8.910156 -6.484375 8.671875 -6.484375 L 4.3125 -6.484375 L 4.3125 -3.0625 L 10.03125 -3.0625 C 10.28125 -3.0625 10.40625 -2.9375 10.40625 -2.6875 L 10.40625 -0.375 C 10.40625 -0.125 10.28125 0 10.03125 0 L 1.5 0 C 1.269531 0 1.15625 -0.125 1.15625 -0.375 L 1.15625 -15.84375 C 1.15625 -16.09375 1.269531 -16.21875 1.5 -16.21875 L 10.03125 -16.21875 C 10.28125 -16.21875 10.40625 -16.09375 10.40625 -15.84375 Z M 10.40625 -15.84375 "/></g></g><g style="fill:#000000;fill-opacity:1;"><g transform="translate(298.146104, 221.331122)"><path style="stroke:none" d="M 8.5 -16.21875 L 10.6875 -16.21875 C 10.925781 -16.21875 11.046875 -16.09375 11.046875 -15.84375 L 11.046875 -0.375 C 11.046875 -0.125 10.925781 0 10.6875 0 L 8.859375 0 C 8.671875 0 8.53125 -0.0976562 8.4375 -0.296875 L 4.078125 -9.15625 L 4.078125 -0.375 C 4.078125 -0.125 3.953125 0 3.703125 0 L 1.53125 0 C 1.28125 0 1.15625 -0.125 1.15625 -0.375 L 1.15625 -15.84375 C 1.15625 -16.09375 1.28125 -16.21875 1.53125 -16.21875 L 3.359375 -16.21875 C 3.546875 -16.21875 3.6875 -16.117188 3.78125 -15.921875 L 8.140625 -7.0625 L 8.140625 -15.84375 C 8.140625 -16.09375 8.257812 -16.21875 8.5 -16.21875 Z M 8.5 -16.21875 "/></g></g><g style="fill:#000000;fill-opacity:1;"><g transform="translate(310.355668, 221.331122)"><path style="stroke:none" d="M 9.59375 -16.21875 L 1.0625 -16.21875 C 0.8125 -16.21875 0.6875 -16.09375 0.6875 -15.84375 L 0.6875 -13.53125 C 0.6875 -13.28125 0.8125 -13.15625 1.0625 -13.15625 L 3.75 -13.15625 L 3.75 -0.375 C 3.75 -0.125 3.875 0 4.125 0 L 6.53125 0 C 6.78125 0 6.90625 -0.125 6.90625 -0.375 L 6.90625 -13.15625 L 9.59375 -13.15625 C 9.84375 -13.15625 9.96875 -13.28125 9.96875 -13.53125 L 9.96875 -15.84375 C 9.96875 -16.09375 9.84375 -16.21875 9.59375 -16.21875 Z M 9.59375 -16.21875 "/></g></g></g></svg>