<svg xmlns="http://www.w3.org/2000/svg" xmlns:xlink="http://www.w3.org/1999/xlink" width="309" zoomAndPan="magnify" viewBox="0 0 231.75 91.5" height="122" preserveAspectRatio="xMidYMid meet" version="1.2"><defs><clipPath id="eda719eeb5"><path d="M 93.316406 28 L 102 28 L 102 42 L 93.316406 42 Z M 93.316406 28 "/></clipPath><clipPath id="e806e65305"><path d="M 130.597656 28.480469 L 138.753906 28.480469 L 138.753906 42 L 130.597656 42 Z M 130.597656 28.480469 "/></clipPath><clipPath id="ef73da8992"><path d="M 109.628906 40.300781 L 122.441406 40.300781 L 122.441406 45.402344 L 109.628906 45.402344 Z M 109.628906 40.300781 "/></clipPath></defs><g id="f833552e40"><g clip-rule="nonzero" clip-path="url(#eda719eeb5)"><path style=" stroke:none;fill-rule:nonzero;fill:#000000;fill-opacity:1;" d="M 101.378906 33.011719 L 101.378906 41.867188 L 93.316406 37.441406 L 93.316406 28.589844 L 101.378906 33.011719 "/></g><path style=" stroke:none;fill-rule:nonzero;fill:#000000;fill-opacity:1;" d="M 111.890625 28.589844 L 111.890625 37.441406 L 103.832031 41.867188 L 103.832031 33.011719 L 111.890625 28.589844 "/><path style=" stroke:none;fill-rule:nonzero;fill:#000000;fill-opacity:1;" d="M 110.667969 26.566406 L 102.601562 30.996094 L 94.542969 26.566406 L 102.601562 22.140625 L 110.667969 26.566406 "/><path style=" stroke:none;fill-rule:nonzero;fill:#000000;fill-opacity:1;" d="M 128.257812 33.011719 L 128.257812 41.867188 L 120.195312 37.441406 L 120.195312 28.589844 L 128.257812 33.011719 "/><g clip-rule="nonzero" clip-path="url(#e806e65305)"><path style=" stroke:none;fill-rule:nonzero;fill:#000000;fill-opacity:1;" d="M 138.773438 28.589844 L 138.773438 37.441406 L 130.710938 41.867188 L 130.710938 33.011719 L 138.773438 28.589844 "/></g><path style=" stroke:none;fill-rule:nonzero;fill:#000000;fill-opacity:1;" d="M 137.546875 26.566406 L 129.484375 30.996094 L 121.421875 26.566406 L 129.484375 22.140625 L 137.546875 26.566406 "/><path style=" stroke:none;fill-rule:nonzero;fill:#000000;fill-opacity:1;" d="M 114.816406 10.910156 L 114.816406 19.765625 L 106.753906 15.339844 L 106.753906 6.488281 L 114.816406 10.910156 "/><path style=" stroke:none;fill-rule:nonzero;fill:#000000;fill-opacity:1;" d="M 125.332031 6.488281 L 125.332031 15.339844 L 117.269531 19.765625 L 117.269531 10.910156 L 125.332031 6.488281 "/><path style=" stroke:none;fill-rule:nonzero;fill:#000000;fill-opacity:1;" d="M 124.105469 4.464844 L 116.042969 8.894531 L 107.984375 4.464844 L 116.042969 0.0390625 L 124.105469 4.464844 "/><path style=" stroke:none;fill-rule:nonzero;fill:#000000;fill-opacity:1;" d="M 100.222656 20.019531 L 100.222656 16.175781 L 103.609375 14.316406 L 103.609375 10.929688 L 97.910156 14.058594 C 97.433594 14.320312 97.136719 14.804688 97.136719 15.332031 L 97.136719 21.710938 L 100.222656 20.019531 "/><path style=" stroke:none;fill-rule:nonzero;fill:#000000;fill-opacity:1;" d="M 128.480469 14.316406 L 131.863281 16.175781 L 131.863281 20.019531 L 134.949219 21.710938 L 134.949219 15.332031 C 134.949219 14.804688 134.65625 14.320312 134.179688 14.058594 L 128.480469 10.929688 L 128.480469 14.316406 "/><g clip-rule="nonzero" clip-path="url(#ef73da8992)"><path style=" stroke:none;fill-rule:nonzero;fill:#000000;fill-opacity:1;" d="M 119.320312 40.441406 L 116.042969 42.242188 L 112.769531 40.441406 L 109.683594 42.136719 L 115.273438 45.207031 C 115.511719 45.335938 115.777344 45.402344 116.042969 45.402344 C 116.3125 45.402344 116.578125 45.335938 116.816406 45.207031 L 122.40625 42.136719 L 119.320312 40.441406 "/></g><g style="fill:#000000;fill-opacity:1;"><g transform="translate(69.476204, 85.825299)"><path style="stroke:none" d="M 0.859375 0 L 0.859375 -6.5 L 2.953125 -6.5 C 3.742188 -6.5 4.335938 -6.351562 4.734375 -6.0625 C 5.140625 -5.769531 5.34375 -5.347656 5.34375 -4.796875 C 5.34375 -4.453125 5.253906 -4.15625 5.078125 -3.90625 C 4.898438 -3.664062 4.585938 -3.46875 4.140625 -3.3125 C 4.398438 -3.257812 4.613281 -3.179688 4.78125 -3.078125 C 4.957031 -2.972656 5.097656 -2.851562 5.203125 -2.71875 C 5.316406 -2.582031 5.394531 -2.429688 5.4375 -2.265625 C 5.488281 -2.097656 5.515625 -1.925781 5.515625 -1.75 C 5.515625 -1.15625 5.304688 -0.710938 4.890625 -0.421875 C 4.472656 -0.140625 3.847656 0 3.015625 0 Z M 1.6875 -0.6875 L 3 -0.6875 C 3.539062 -0.6875 3.953125 -0.773438 4.234375 -0.953125 C 4.523438 -1.128906 4.671875 -1.40625 4.671875 -1.78125 C 4.671875 -2.050781 4.597656 -2.269531 4.453125 -2.4375 C 4.316406 -2.613281 4.128906 -2.738281 3.890625 -2.8125 C 3.660156 -2.894531 3.398438 -2.9375 3.109375 -2.9375 L 1.6875 -2.9375 Z M 1.6875 -3.640625 L 3.109375 -3.640625 C 3.273438 -3.640625 3.441406 -3.65625 3.609375 -3.6875 C 3.773438 -3.71875 3.925781 -3.773438 4.0625 -3.859375 C 4.207031 -3.941406 4.320312 -4.050781 4.40625 -4.1875 C 4.5 -4.320312 4.546875 -4.492188 4.546875 -4.703125 C 4.546875 -5.078125 4.398438 -5.351562 4.109375 -5.53125 C 3.816406 -5.71875 3.441406 -5.8125 2.984375 -5.8125 L 1.6875 -5.8125 Z M 1.6875 -3.640625 "/></g></g><g style="fill:#000000;fill-opacity:1;"><g transform="translate(76.400085, 85.825299)"><path style="stroke:none" d="M 1.859375 0.0625 C 1.609375 0.0625 1.40625 0.03125 1.25 -0.03125 C 1.09375 -0.101562 0.972656 -0.195312 0.890625 -0.3125 C 0.804688 -0.4375 0.75 -0.570312 0.71875 -0.71875 C 0.695312 -0.875 0.6875 -1.03125 0.6875 -1.1875 L 0.6875 -6.671875 L 1.5 -6.671875 L 1.5 -1.28125 C 1.5 -1.039062 1.546875 -0.863281 1.640625 -0.75 C 1.734375 -0.632812 1.863281 -0.570312 2.03125 -0.5625 L 2.28125 -0.546875 L 2.28125 -0.015625 C 2.207031 0.00390625 2.132812 0.0195312 2.0625 0.03125 C 1.988281 0.0507812 1.921875 0.0625 1.859375 0.0625 Z M 1.859375 0.0625 "/></g></g><g style="fill:#000000;fill-opacity:1;"><g transform="translate(79.972576, 85.825299)"><path style="stroke:none" d="M 2.53125 0.09375 C 2.101562 0.09375 1.726562 0 1.40625 -0.1875 C 1.09375 -0.375 0.847656 -0.644531 0.671875 -1 C 0.492188 -1.351562 0.40625 -1.785156 0.40625 -2.296875 C 0.40625 -2.785156 0.484375 -3.210938 0.640625 -3.578125 C 0.804688 -3.941406 1.046875 -4.222656 1.359375 -4.421875 C 1.679688 -4.628906 2.070312 -4.734375 2.53125 -4.734375 C 2.957031 -4.734375 3.328125 -4.640625 3.640625 -4.453125 C 3.960938 -4.265625 4.207031 -3.988281 4.375 -3.625 C 4.550781 -3.269531 4.640625 -2.828125 4.640625 -2.296875 C 4.640625 -1.828125 4.5625 -1.410156 4.40625 -1.046875 C 4.25 -0.691406 4.007812 -0.410156 3.6875 -0.203125 C 3.375 -0.00390625 2.988281 0.09375 2.53125 0.09375 Z M 2.53125 -0.5625 C 2.8125 -0.5625 3.046875 -0.628906 3.234375 -0.765625 C 3.429688 -0.910156 3.578125 -1.113281 3.671875 -1.375 C 3.773438 -1.644531 3.828125 -1.960938 3.828125 -2.328125 C 3.828125 -2.660156 3.78125 -2.957031 3.6875 -3.21875 C 3.601562 -3.476562 3.460938 -3.6875 3.265625 -3.84375 C 3.078125 -4 2.832031 -4.078125 2.53125 -4.078125 C 2.25 -4.078125 2.007812 -4.007812 1.8125 -3.875 C 1.625 -3.738281 1.476562 -3.535156 1.375 -3.265625 C 1.269531 -3.003906 1.21875 -2.691406 1.21875 -2.328125 C 1.21875 -1.992188 1.265625 -1.691406 1.359375 -1.421875 C 1.453125 -1.160156 1.59375 -0.953125 1.78125 -0.796875 C 1.976562 -0.640625 2.226562 -0.5625 2.53125 -0.5625 Z M 2.53125 -0.5625 "/></g></g><g style="fill:#000000;fill-opacity:1;"><g transform="translate(85.92159, 85.825299)"><path style="stroke:none" d="M 2.53125 -4.734375 C 2.863281 -4.734375 3.164062 -4.671875 3.4375 -4.546875 C 3.707031 -4.421875 3.925781 -4.238281 4.09375 -4 C 4.257812 -3.769531 4.363281 -3.492188 4.40625 -3.171875 L 3.671875 -3.171875 C 3.640625 -3.335938 3.578125 -3.488281 3.484375 -3.625 C 3.390625 -3.757812 3.257812 -3.863281 3.09375 -3.9375 C 2.9375 -4.019531 2.753906 -4.0625 2.546875 -4.0625 C 2.140625 -4.0625 1.8125 -3.914062 1.5625 -3.625 C 1.320312 -3.34375 1.203125 -2.90625 1.203125 -2.3125 C 1.203125 -1.78125 1.316406 -1.351562 1.546875 -1.03125 C 1.773438 -0.707031 2.113281 -0.546875 2.5625 -0.546875 C 2.769531 -0.546875 2.953125 -0.585938 3.109375 -0.671875 C 3.265625 -0.753906 3.390625 -0.863281 3.484375 -1 C 3.585938 -1.132812 3.648438 -1.28125 3.671875 -1.4375 L 4.390625 -1.4375 C 4.359375 -1.125 4.253906 -0.851562 4.078125 -0.625 C 3.910156 -0.394531 3.691406 -0.21875 3.421875 -0.09375 C 3.160156 0.03125 2.863281 0.09375 2.53125 0.09375 C 2.113281 0.09375 1.742188 0.00390625 1.421875 -0.171875 C 1.109375 -0.359375 0.859375 -0.628906 0.671875 -0.984375 C 0.492188 -1.347656 0.40625 -1.785156 0.40625 -2.296875 C 0.40625 -2.785156 0.488281 -3.210938 0.65625 -3.578125 C 0.820312 -3.941406 1.0625 -4.222656 1.375 -4.421875 C 1.695312 -4.628906 2.082031 -4.734375 2.53125 -4.734375 Z M 2.53125 -4.734375 "/></g></g><g style="fill:#000000;fill-opacity:1;"><g transform="translate(91.668441, 85.825299)"><path style="stroke:none" d="M 4.765625 0 L 3.890625 0 L 2.4375 -2.328125 L 1.515625 -1.390625 L 1.515625 0 L 0.6875 0 L 0.6875 -6.671875 L 1.515625 -6.671875 L 1.515625 -2.328125 L 3.703125 -4.640625 L 4.65625 -4.640625 L 2.96875 -2.875 Z M 4.765625 0 "/></g></g><g style="fill:#000000;fill-opacity:1;"><g transform="translate(97.635428, 85.825299)"><path style="stroke:none" d=""/></g></g><g style="fill:#000000;fill-opacity:1;"><g transform="translate(100.605925, 85.825299)"><path style="stroke:none" d="M 3.25 -6.578125 C 3.707031 -6.578125 4.113281 -6.484375 4.46875 -6.296875 C 4.820312 -6.109375 5.101562 -5.851562 5.3125 -5.53125 C 5.53125 -5.21875 5.660156 -4.875 5.703125 -4.5 L 4.8125 -4.5 C 4.769531 -4.75 4.679688 -4.976562 4.546875 -5.1875 C 4.410156 -5.394531 4.234375 -5.554688 4.015625 -5.671875 C 3.796875 -5.796875 3.53125 -5.859375 3.21875 -5.859375 C 2.832031 -5.859375 2.503906 -5.765625 2.234375 -5.578125 C 1.960938 -5.398438 1.753906 -5.117188 1.609375 -4.734375 C 1.472656 -4.347656 1.40625 -3.859375 1.40625 -3.265625 C 1.40625 -2.359375 1.5625 -1.691406 1.875 -1.265625 C 2.1875 -0.847656 2.632812 -0.640625 3.21875 -0.640625 C 3.53125 -0.640625 3.796875 -0.703125 4.015625 -0.828125 C 4.234375 -0.953125 4.410156 -1.125 4.546875 -1.34375 C 4.679688 -1.5625 4.769531 -1.796875 4.8125 -2.046875 L 5.703125 -2.046875 C 5.671875 -1.765625 5.597656 -1.492188 5.484375 -1.234375 C 5.367188 -0.984375 5.207031 -0.757812 5 -0.5625 C 4.800781 -0.363281 4.554688 -0.203125 4.265625 -0.078125 C 3.972656 0.0351562 3.632812 0.09375 3.25 0.09375 C 2.664062 0.09375 2.164062 -0.0351562 1.75 -0.296875 C 1.34375 -0.566406 1.03125 -0.953125 0.8125 -1.453125 C 0.59375 -1.953125 0.484375 -2.554688 0.484375 -3.265625 C 0.484375 -3.972656 0.585938 -4.570312 0.796875 -5.0625 C 1.015625 -5.5625 1.332031 -5.9375 1.75 -6.1875 C 2.164062 -6.445312 2.664062 -6.578125 3.25 -6.578125 Z M 3.25 -6.578125 "/></g></g><g style="fill:#000000;fill-opacity:1;"><g transform="translate(107.691542, 85.825299)"><path style="stroke:none" d="M 0.6875 0 L 0.6875 -6.671875 L 1.5 -6.671875 L 1.5 -3.96875 C 1.570312 -4.09375 1.675781 -4.210938 1.8125 -4.328125 C 1.945312 -4.441406 2.109375 -4.53125 2.296875 -4.59375 C 2.484375 -4.664062 2.703125 -4.703125 2.953125 -4.703125 C 3.253906 -4.703125 3.523438 -4.644531 3.765625 -4.53125 C 4.015625 -4.414062 4.207031 -4.253906 4.34375 -4.046875 C 4.488281 -3.847656 4.5625 -3.601562 4.5625 -3.3125 L 4.5625 0 L 3.734375 0 L 3.734375 -3.15625 C 3.734375 -3.4375 3.640625 -3.648438 3.453125 -3.796875 C 3.265625 -3.953125 3.015625 -4.03125 2.703125 -4.03125 C 2.503906 -4.03125 2.3125 -3.992188 2.125 -3.921875 C 1.9375 -3.859375 1.785156 -3.757812 1.671875 -3.625 C 1.566406 -3.488281 1.515625 -3.3125 1.515625 -3.09375 L 1.515625 0 Z M 0.6875 0 "/></g></g><g style="fill:#000000;fill-opacity:1;"><g transform="translate(113.770839, 85.825299)"><path style="stroke:none" d="M 1.96875 0.09375 C 1.664062 0.09375 1.398438 0.0390625 1.171875 -0.0625 C 0.941406 -0.175781 0.757812 -0.332031 0.625 -0.53125 C 0.5 -0.726562 0.4375 -0.972656 0.4375 -1.265625 C 0.4375 -1.773438 0.613281 -2.15625 0.96875 -2.40625 C 1.332031 -2.65625 1.910156 -2.789062 2.703125 -2.8125 L 3.546875 -2.828125 L 3.546875 -3.203125 C 3.546875 -3.484375 3.457031 -3.707031 3.28125 -3.875 C 3.113281 -4.039062 2.847656 -4.125 2.484375 -4.125 C 2.222656 -4.125 1.988281 -4.0625 1.78125 -3.9375 C 1.582031 -3.8125 1.453125 -3.609375 1.390625 -3.328125 L 0.65625 -3.328125 C 0.675781 -3.628906 0.757812 -3.882812 0.90625 -4.09375 C 1.0625 -4.300781 1.273438 -4.457031 1.546875 -4.5625 C 1.828125 -4.675781 2.15625 -4.734375 2.53125 -4.734375 C 2.9375 -4.734375 3.269531 -4.675781 3.53125 -4.5625 C 3.800781 -4.445312 4.003906 -4.28125 4.140625 -4.0625 C 4.273438 -3.84375 4.34375 -3.570312 4.34375 -3.25 L 4.34375 0 L 3.625 0 L 3.578125 -0.875 C 3.390625 -0.507812 3.15625 -0.253906 2.875 -0.109375 C 2.601562 0.0234375 2.300781 0.09375 1.96875 0.09375 Z M 2.21875 -0.5 C 2.375 -0.5 2.53125 -0.523438 2.6875 -0.578125 C 2.84375 -0.640625 2.984375 -0.71875 3.109375 -0.8125 C 3.242188 -0.914062 3.347656 -1.023438 3.421875 -1.140625 C 3.492188 -1.265625 3.535156 -1.394531 3.546875 -1.53125 L 3.546875 -2.328125 L 2.84375 -2.3125 C 2.488281 -2.300781 2.191406 -2.265625 1.953125 -2.203125 C 1.722656 -2.140625 1.546875 -2.035156 1.421875 -1.890625 C 1.304688 -1.753906 1.25 -1.570312 1.25 -1.34375 C 1.25 -1.082031 1.335938 -0.875 1.515625 -0.71875 C 1.703125 -0.570312 1.9375 -0.5 2.21875 -0.5 Z M 2.21875 -0.5 "/></g></g><g style="fill:#000000;fill-opacity:1;"><g transform="translate(119.742317, 85.825299)"><path style="stroke:none" d="M 1.578125 -4.640625 L 1.578125 0 L 0.78125 0 L 0.78125 -4.640625 Z M 1.609375 -6.484375 L 1.609375 -5.625 L 0.75 -5.625 L 0.75 -6.484375 Z M 1.609375 -6.484375 "/></g></g><g style="fill:#000000;fill-opacity:1;"><g transform="translate(123.000333, 85.825299)"><path style="stroke:none" d="M 0.6875 0 L 0.6875 -4.640625 L 1.484375 -4.640625 L 1.484375 -3.96875 C 1.566406 -4.101562 1.671875 -4.222656 1.796875 -4.328125 C 1.929688 -4.441406 2.09375 -4.535156 2.28125 -4.609375 C 2.476562 -4.679688 2.703125 -4.71875 2.953125 -4.71875 C 3.242188 -4.71875 3.507812 -4.65625 3.75 -4.53125 C 4 -4.414062 4.195312 -4.234375 4.34375 -3.984375 C 4.5 -3.742188 4.578125 -3.425781 4.578125 -3.03125 L 4.578125 0 L 3.734375 0 L 3.734375 -2.953125 C 3.734375 -3.316406 3.640625 -3.585938 3.453125 -3.765625 C 3.265625 -3.941406 3.019531 -4.03125 2.71875 -4.03125 C 2.507812 -4.03125 2.3125 -3.992188 2.125 -3.921875 C 1.945312 -3.859375 1.800781 -3.757812 1.6875 -3.625 C 1.570312 -3.488281 1.515625 -3.316406 1.515625 -3.109375 L 1.515625 0 Z M 0.6875 0 "/></g></g><g style="fill:#000000;fill-opacity:1;"><g transform="translate(129.084121, 85.825299)"><path style="stroke:none" d=""/></g></g><g style="fill:#000000;fill-opacity:1;"><g transform="translate(132.054618, 85.825299)"><path style="stroke:none" d="M 0.859375 0 L 0.859375 -6.5 L 2.953125 -6.5 C 3.742188 -6.5 4.335938 -6.351562 4.734375 -6.0625 C 5.140625 -5.769531 5.34375 -5.347656 5.34375 -4.796875 C 5.34375 -4.453125 5.253906 -4.15625 5.078125 -3.90625 C 4.898438 -3.664062 4.585938 -3.46875 4.140625 -3.3125 C 4.398438 -3.257812 4.613281 -3.179688 4.78125 -3.078125 C 4.957031 -2.972656 5.097656 -2.851562 5.203125 -2.71875 C 5.316406 -2.582031 5.394531 -2.429688 5.4375 -2.265625 C 5.488281 -2.097656 5.515625 -1.925781 5.515625 -1.75 C 5.515625 -1.15625 5.304688 -0.710938 4.890625 -0.421875 C 4.472656 -0.140625 3.847656 0 3.015625 0 Z M 1.6875 -0.6875 L 3 -0.6875 C 3.539062 -0.6875 3.953125 -0.773438 4.234375 -0.953125 C 4.523438 -1.128906 4.671875 -1.40625 4.671875 -1.78125 C 4.671875 -2.050781 4.597656 -2.269531 4.453125 -2.4375 C 4.316406 -2.613281 4.128906 -2.738281 3.890625 -2.8125 C 3.660156 -2.894531 3.398438 -2.9375 3.109375 -2.9375 L 1.6875 -2.9375 Z M 1.6875 -3.640625 L 3.109375 -3.640625 C 3.273438 -3.640625 3.441406 -3.65625 3.609375 -3.6875 C 3.773438 -3.71875 3.925781 -3.773438 4.0625 -3.859375 C 4.207031 -3.941406 4.320312 -4.050781 4.40625 -4.1875 C 4.5 -4.320312 4.546875 -4.492188 4.546875 -4.703125 C 4.546875 -5.078125 4.398438 -5.351562 4.109375 -5.53125 C 3.816406 -5.71875 3.441406 -5.8125 2.984375 -5.8125 L 1.6875 -5.8125 Z M 1.6875 -3.640625 "/></g></g><g style="fill:#000000;fill-opacity:1;"><g transform="translate(138.9785, 85.825299)"><path style="stroke:none" d="M 1.96875 0.09375 C 1.664062 0.09375 1.398438 0.0390625 1.171875 -0.0625 C 0.941406 -0.175781 0.757812 -0.332031 0.625 -0.53125 C 0.5 -0.726562 0.4375 -0.972656 0.4375 -1.265625 C 0.4375 -1.773438 0.613281 -2.15625 0.96875 -2.40625 C 1.332031 -2.65625 1.910156 -2.789062 2.703125 -2.8125 L 3.546875 -2.828125 L 3.546875 -3.203125 C 3.546875 -3.484375 3.457031 -3.707031 3.28125 -3.875 C 3.113281 -4.039062 2.847656 -4.125 2.484375 -4.125 C 2.222656 -4.125 1.988281 -4.0625 1.78125 -3.9375 C 1.582031 -3.8125 1.453125 -3.609375 1.390625 -3.328125 L 0.65625 -3.328125 C 0.675781 -3.628906 0.757812 -3.882812 0.90625 -4.09375 C 1.0625 -4.300781 1.273438 -4.457031 1.546875 -4.5625 C 1.828125 -4.675781 2.15625 -4.734375 2.53125 -4.734375 C 2.9375 -4.734375 3.269531 -4.675781 3.53125 -4.5625 C 3.800781 -4.445312 4.003906 -4.28125 4.140625 -4.0625 C 4.273438 -3.84375 4.34375 -3.570312 4.34375 -3.25 L 4.34375 0 L 3.625 0 L 3.578125 -0.875 C 3.390625 -0.507812 3.15625 -0.253906 2.875 -0.109375 C 2.601562 0.0234375 2.300781 0.09375 1.96875 0.09375 Z M 2.21875 -0.5 C 2.375 -0.5 2.53125 -0.523438 2.6875 -0.578125 C 2.84375 -0.640625 2.984375 -0.71875 3.109375 -0.8125 C 3.242188 -0.914062 3.347656 -1.023438 3.421875 -1.140625 C 3.492188 -1.265625 3.535156 -1.394531 3.546875 -1.53125 L 3.546875 -2.328125 L 2.84375 -2.3125 C 2.488281 -2.300781 2.191406 -2.265625 1.953125 -2.203125 C 1.722656 -2.140625 1.546875 -2.035156 1.421875 -1.890625 C 1.304688 -1.753906 1.25 -1.570312 1.25 -1.34375 C 1.25 -1.082031 1.335938 -0.875 1.515625 -0.71875 C 1.703125 -0.570312 1.9375 -0.5 2.21875 -0.5 Z M 2.21875 -0.5 "/></g></g><g style="fill:#000000;fill-opacity:1;"><g transform="translate(144.949978, 85.825299)"><path style="stroke:none" d="M 2.34375 0.09375 C 2.007812 0.09375 1.703125 0.0390625 1.421875 -0.0625 C 1.148438 -0.164062 0.921875 -0.320312 0.734375 -0.53125 C 0.554688 -0.75 0.445312 -1.023438 0.40625 -1.359375 L 1.15625 -1.359375 C 1.195312 -1.171875 1.269531 -1.015625 1.375 -0.890625 C 1.488281 -0.773438 1.628906 -0.6875 1.796875 -0.625 C 1.960938 -0.5625 2.140625 -0.53125 2.328125 -0.53125 C 2.640625 -0.53125 2.890625 -0.585938 3.078125 -0.703125 C 3.273438 -0.816406 3.375 -1 3.375 -1.25 C 3.375 -1.414062 3.320312 -1.550781 3.21875 -1.65625 C 3.125 -1.757812 2.972656 -1.832031 2.765625 -1.875 L 1.796875 -2.125 C 1.421875 -2.207031 1.117188 -2.34375 0.890625 -2.53125 C 0.671875 -2.726562 0.5625 -3 0.5625 -3.34375 C 0.5625 -3.613281 0.625 -3.851562 0.75 -4.0625 C 0.882812 -4.269531 1.082031 -4.429688 1.34375 -4.546875 C 1.613281 -4.671875 1.941406 -4.734375 2.328125 -4.734375 C 2.835938 -4.734375 3.242188 -4.617188 3.546875 -4.390625 C 3.859375 -4.171875 4.019531 -3.84375 4.03125 -3.40625 L 3.296875 -3.40625 C 3.265625 -3.625 3.164062 -3.796875 3 -3.921875 C 2.832031 -4.054688 2.609375 -4.125 2.328125 -4.125 C 2.023438 -4.125 1.78125 -4.0625 1.59375 -3.9375 C 1.414062 -3.820312 1.328125 -3.640625 1.328125 -3.390625 C 1.328125 -3.234375 1.390625 -3.101562 1.515625 -3 C 1.648438 -2.90625 1.847656 -2.828125 2.109375 -2.765625 L 3.03125 -2.53125 C 3.25 -2.476562 3.425781 -2.40625 3.5625 -2.3125 C 3.707031 -2.21875 3.816406 -2.113281 3.890625 -2 C 3.972656 -1.882812 4.03125 -1.765625 4.0625 -1.640625 C 4.101562 -1.515625 4.125 -1.398438 4.125 -1.296875 C 4.125 -1.003906 4.050781 -0.753906 3.90625 -0.546875 C 3.769531 -0.347656 3.566406 -0.191406 3.296875 -0.078125 C 3.035156 0.0351562 2.71875 0.09375 2.34375 0.09375 Z M 2.34375 0.09375 "/></g></g><g style="fill:#000000;fill-opacity:1;"><g transform="translate(150.445254, 85.825299)"><path style="stroke:none" d="M 1.28125 -2.125 C 1.28125 -1.832031 1.328125 -1.566406 1.421875 -1.328125 C 1.523438 -1.085938 1.675781 -0.894531 1.875 -0.75 C 2.070312 -0.613281 2.320312 -0.546875 2.625 -0.546875 C 2.914062 -0.546875 3.164062 -0.613281 3.375 -0.75 C 3.59375 -0.894531 3.734375 -1.097656 3.796875 -1.359375 L 4.578125 -1.359375 C 4.523438 -1.046875 4.398438 -0.78125 4.203125 -0.5625 C 4.003906 -0.34375 3.769531 -0.175781 3.5 -0.0625 C 3.226562 0.0390625 2.941406 0.09375 2.640625 0.09375 C 2.203125 0.09375 1.816406 0 1.484375 -0.1875 C 1.160156 -0.375 0.90625 -0.644531 0.71875 -1 C 0.53125 -1.351562 0.4375 -1.78125 0.4375 -2.28125 C 0.4375 -2.769531 0.519531 -3.195312 0.6875 -3.5625 C 0.851562 -3.925781 1.097656 -4.210938 1.421875 -4.421875 C 1.742188 -4.628906 2.128906 -4.734375 2.578125 -4.734375 C 3.015625 -4.734375 3.382812 -4.640625 3.6875 -4.453125 C 3.988281 -4.265625 4.21875 -4 4.375 -3.65625 C 4.53125 -3.3125 4.609375 -2.90625 4.609375 -2.4375 L 4.609375 -2.125 Z M 1.28125 -2.6875 L 3.8125 -2.6875 C 3.8125 -2.957031 3.765625 -3.195312 3.671875 -3.40625 C 3.585938 -3.625 3.453125 -3.796875 3.265625 -3.921875 C 3.078125 -4.046875 2.84375 -4.109375 2.5625 -4.109375 C 2.28125 -4.109375 2.039062 -4.035156 1.84375 -3.890625 C 1.65625 -3.753906 1.515625 -3.578125 1.421875 -3.359375 C 1.328125 -3.140625 1.28125 -2.914062 1.28125 -2.6875 Z M 1.28125 -2.6875 "/></g></g><g style="fill:#000000;fill-opacity:1;"><g transform="translate(156.403259, 85.825299)"><path style="stroke:none" d="M 2.359375 0.09375 C 1.753906 0.09375 1.273438 -0.113281 0.921875 -0.53125 C 0.578125 -0.945312 0.40625 -1.550781 0.40625 -2.34375 C 0.40625 -2.820312 0.472656 -3.238281 0.609375 -3.59375 C 0.753906 -3.957031 0.96875 -4.238281 1.25 -4.4375 C 1.53125 -4.632812 1.878906 -4.734375 2.296875 -4.734375 C 2.515625 -4.734375 2.710938 -4.703125 2.890625 -4.640625 C 3.066406 -4.585938 3.21875 -4.515625 3.34375 -4.421875 C 3.46875 -4.335938 3.566406 -4.25 3.640625 -4.15625 C 3.722656 -4.070312 3.785156 -3.988281 3.828125 -3.90625 L 3.828125 -6.671875 L 4.65625 -6.671875 L 4.65625 0 L 4.03125 0 L 3.9375 -0.953125 C 3.90625 -0.859375 3.851562 -0.753906 3.78125 -0.640625 C 3.71875 -0.523438 3.625 -0.410156 3.5 -0.296875 C 3.382812 -0.179688 3.234375 -0.0859375 3.046875 -0.015625 C 2.859375 0.0546875 2.628906 0.09375 2.359375 0.09375 Z M 2.515625 -0.546875 C 2.984375 -0.546875 3.316406 -0.6875 3.515625 -0.96875 C 3.722656 -1.257812 3.828125 -1.726562 3.828125 -2.375 C 3.816406 -2.738281 3.765625 -3.046875 3.671875 -3.296875 C 3.585938 -3.554688 3.453125 -3.753906 3.265625 -3.890625 C 3.078125 -4.023438 2.832031 -4.09375 2.53125 -4.09375 C 2.144531 -4.09375 1.832031 -3.953125 1.59375 -3.671875 C 1.351562 -3.398438 1.234375 -2.96875 1.234375 -2.375 C 1.234375 -1.800781 1.34375 -1.351562 1.5625 -1.03125 C 1.78125 -0.707031 2.097656 -0.546875 2.515625 -0.546875 Z M 2.515625 -0.546875 "/></g></g><g style="fill:#000000;fill-opacity:1;"><g transform="translate(25.742216, 64.521683)"><path style="stroke:none" d="M 3.03125 -12.46875 L 4.765625 -12.46875 C 5.503906 -12.46875 6.0625 -12.28125 6.4375 -11.90625 C 6.820312 -11.53125 7.015625 -10.972656 7.015625 -10.234375 L 7.015625 -8.578125 C 7.015625 -8.410156 6.929688 -8.328125 6.765625 -8.328125 L 5.140625 -8.328125 C 4.972656 -8.328125 4.890625 -8.410156 4.890625 -8.578125 L 4.890625 -9.796875 C 4.890625 -10.210938 4.679688 -10.421875 4.265625 -10.421875 L 3.53125 -10.421875 C 3.113281 -10.421875 2.90625 -10.210938 2.90625 -9.796875 L 2.90625 -7.640625 L 6.609375 -6.421875 C 6.878906 -6.304688 7.015625 -6.113281 7.015625 -5.84375 L 7.015625 -2.25 C 7.015625 -1.519531 6.820312 -0.960938 6.4375 -0.578125 C 6.0625 -0.191406 5.503906 0 4.765625 0 L 3.03125 0 C 2.300781 0 1.742188 -0.191406 1.359375 -0.578125 C 0.972656 -0.960938 0.78125 -1.519531 0.78125 -2.25 L 0.78125 -3.890625 C 0.78125 -4.046875 0.863281 -4.125 1.03125 -4.125 L 2.65625 -4.125 C 2.820312 -4.125 2.90625 -4.046875 2.90625 -3.890625 L 2.90625 -2.6875 C 2.90625 -2.269531 3.113281 -2.0625 3.53125 -2.0625 L 4.265625 -2.0625 C 4.679688 -2.0625 4.890625 -2.269531 4.890625 -2.6875 L 4.890625 -4.75 L 1.203125 -5.96875 C 0.921875 -6.0625 0.78125 -6.253906 0.78125 -6.546875 L 0.78125 -10.234375 C 0.78125 -10.972656 0.972656 -11.53125 1.359375 -11.90625 C 1.742188 -12.28125 2.300781 -12.46875 3.03125 -12.46875 Z M 3.03125 -12.46875 "/></g></g><g style="fill:#000000;fill-opacity:1;"><g transform="translate(33.53994, 64.521683)"><path style="stroke:none" d="M 6.453125 -10.921875 L 0.71875 -10.921875 C 0.550781 -10.921875 0.46875 -10.835938 0.46875 -10.671875 L 0.46875 -9.109375 C 0.46875 -8.941406 0.550781 -8.859375 0.71875 -8.859375 L 2.53125 -8.859375 L 2.53125 -0.25 C 2.53125 -0.0820312 2.613281 0 2.78125 0 L 4.390625 0 C 4.554688 0 4.640625 -0.0820312 4.640625 -0.25 L 4.640625 -8.859375 L 6.453125 -8.859375 C 6.617188 -8.859375 6.703125 -8.941406 6.703125 -9.109375 L 6.703125 -10.671875 C 6.703125 -10.835938 6.617188 -10.921875 6.453125 -10.921875 Z M 6.453125 -10.921875 "/></g></g><g style="fill:#000000;fill-opacity:1;"><g transform="translate(40.713839, 64.521683)"><path style="stroke:none" d="M 5.265625 -10.921875 L 6.703125 -10.921875 C 6.785156 -10.921875 6.859375 -10.890625 6.921875 -10.828125 C 6.984375 -10.765625 7.015625 -10.691406 7.015625 -10.609375 L 7.015625 -2.25 C 7.015625 -1.519531 6.820312 -0.960938 6.4375 -0.578125 C 6.0625 -0.191406 5.503906 0 4.765625 0 L 3.03125 0 C 2.300781 0 1.742188 -0.191406 1.359375 -0.578125 C 0.972656 -0.960938 0.78125 -1.519531 0.78125 -2.25 L 0.78125 -10.609375 C 0.78125 -10.691406 0.8125 -10.765625 0.875 -10.828125 C 0.9375 -10.890625 1.007812 -10.921875 1.09375 -10.921875 L 2.59375 -10.921875 C 2.675781 -10.921875 2.75 -10.890625 2.8125 -10.828125 C 2.875 -10.765625 2.90625 -10.691406 2.90625 -10.609375 L 2.90625 -2.6875 C 2.90625 -2.269531 3.113281 -2.0625 3.53125 -2.0625 L 4.328125 -2.0625 C 4.742188 -2.0625 4.953125 -2.269531 4.953125 -2.6875 L 4.953125 -10.609375 C 4.953125 -10.691406 4.984375 -10.765625 5.046875 -10.828125 C 5.109375 -10.890625 5.179688 -10.921875 5.265625 -10.921875 Z M 5.265625 -10.921875 "/></g></g><g style="fill:#000000;fill-opacity:1;"><g transform="translate(48.511563, 64.521683)"><path style="stroke:none" d="M 0.78125 -0.25 L 0.78125 -10.671875 C 0.78125 -10.835938 0.863281 -10.921875 1.03125 -10.921875 L 4.765625 -10.921875 C 5.503906 -10.921875 6.0625 -10.726562 6.4375 -10.34375 C 6.820312 -9.957031 7.015625 -9.394531 7.015625 -8.65625 L 7.015625 -2.25 C 7.015625 -1.519531 6.820312 -0.960938 6.4375 -0.578125 C 6.0625 -0.191406 5.503906 0 4.765625 0 L 1.03125 0 C 0.863281 0 0.78125 -0.0820312 0.78125 -0.25 Z M 2.90625 -2.0625 L 4.328125 -2.0625 C 4.742188 -2.0625 4.953125 -2.269531 4.953125 -2.6875 L 4.953125 -8.21875 C 4.953125 -8.644531 4.742188 -8.859375 4.328125 -8.859375 L 2.90625 -8.859375 Z M 2.90625 -2.0625 "/></g></g><g style="fill:#000000;fill-opacity:1;"><g transform="translate(56.309286, 64.521683)"><path style="stroke:none" d="M 7 -10.671875 L 7 -9.109375 C 7 -8.929688 6.914062 -8.84375 6.75 -8.84375 L 2.90625 -8.84375 L 2.90625 -6.4375 L 5.828125 -6.4375 C 5.992188 -6.4375 6.078125 -6.347656 6.078125 -6.171875 L 6.078125 -4.625 C 6.078125 -4.445312 5.992188 -4.359375 5.828125 -4.359375 L 2.90625 -4.359375 L 2.90625 -2.0625 L 6.75 -2.0625 C 6.914062 -2.0625 7 -1.976562 7 -1.8125 L 7 -0.25 C 7 -0.0820312 6.914062 0 6.75 0 L 1.015625 0 C 0.859375 0 0.78125 -0.0820312 0.78125 -0.25 L 0.78125 -10.671875 C 0.78125 -10.835938 0.859375 -10.921875 1.015625 -10.921875 L 6.75 -10.921875 C 6.914062 -10.921875 7 -10.835938 7 -10.671875 Z M 7 -10.671875 "/></g></g><g style="fill:#000000;fill-opacity:1;"><g transform="translate(64.09141, 64.521683)"><path style="stroke:none" d="M 5.71875 -10.921875 L 7.1875 -10.921875 C 7.351562 -10.921875 7.4375 -10.835938 7.4375 -10.671875 L 7.4375 -0.25 C 7.4375 -0.0820312 7.351562 0 7.1875 0 L 5.953125 0 C 5.828125 0 5.734375 -0.0664062 5.671875 -0.203125 L 2.75 -6.15625 L 2.75 -0.25 C 2.75 -0.0820312 2.664062 0 2.5 0 L 1.03125 0 C 0.863281 0 0.78125 -0.0820312 0.78125 -0.25 L 0.78125 -10.671875 C 0.78125 -10.835938 0.863281 -10.921875 1.03125 -10.921875 L 2.265625 -10.921875 C 2.390625 -10.921875 2.484375 -10.851562 2.546875 -10.71875 L 5.46875 -4.75 L 5.46875 -10.671875 C 5.46875 -10.835938 5.550781 -10.921875 5.71875 -10.921875 Z M 5.71875 -10.921875 "/></g></g><g style="fill:#000000;fill-opacity:1;"><g transform="translate(72.310209, 64.521683)"><path style="stroke:none" d="M 6.453125 -10.921875 L 0.71875 -10.921875 C 0.550781 -10.921875 0.46875 -10.835938 0.46875 -10.671875 L 0.46875 -9.109375 C 0.46875 -8.941406 0.550781 -8.859375 0.71875 -8.859375 L 2.53125 -8.859375 L 2.53125 -0.25 C 2.53125 -0.0820312 2.613281 0 2.78125 0 L 4.390625 0 C 4.554688 0 4.640625 -0.0820312 4.640625 -0.25 L 4.640625 -8.859375 L 6.453125 -8.859375 C 6.617188 -8.859375 6.703125 -8.941406 6.703125 -9.109375 L 6.703125 -10.671875 C 6.703125 -10.835938 6.617188 -10.921875 6.453125 -10.921875 Z M 6.453125 -10.921875 "/></g></g><g style="fill:#000000;fill-opacity:1;"><g transform="translate(79.484108, 64.521683)"><path style="stroke:none" d=""/></g></g><g style="fill:#000000;fill-opacity:1;"><g transform="translate(83.382966, 64.521683)"><path style="stroke:none" d="M 0.78125 -0.25 L 0.78125 -12.21875 C 0.78125 -12.382812 0.863281 -12.46875 1.03125 -12.46875 L 4.765625 -12.46875 C 5.503906 -12.46875 6.0625 -12.273438 6.4375 -11.890625 C 6.820312 -11.515625 7.015625 -10.957031 7.015625 -10.21875 L 7.015625 -2.25 C 7.015625 -1.519531 6.820312 -0.960938 6.4375 -0.578125 C 6.0625 -0.191406 5.503906 0 4.765625 0 L 1.03125 0 C 0.863281 0 0.78125 -0.0820312 0.78125 -0.25 Z M 2.90625 -2.0625 L 4.328125 -2.0625 C 4.742188 -2.0625 4.953125 -2.269531 4.953125 -2.6875 L 4.953125 -9.78125 C 4.953125 -10.207031 4.742188 -10.421875 4.328125 -10.421875 L 2.90625 -10.421875 Z M 2.90625 -2.0625 "/></g></g><g style="fill:#000000;fill-opacity:1;"><g transform="translate(91.18069, 64.521683)"><path style="stroke:none" d="M 8.140625 0 L 6.625 0 C 6.488281 0 6.40625 -0.0703125 6.375 -0.21875 L 5.875 -2.1875 L 2.953125 -2.1875 L 2.46875 -0.21875 C 2.4375 -0.0703125 2.351562 0 2.21875 0 L 0.6875 0 C 0.5 0 0.429688 -0.0859375 0.484375 -0.265625 L 3.078125 -10.703125 C 3.109375 -10.847656 3.195312 -10.921875 3.34375 -10.921875 L 5.5 -10.921875 C 5.644531 -10.921875 5.734375 -10.847656 5.765625 -10.703125 L 8.359375 -0.265625 C 8.410156 -0.0859375 8.335938 0 8.140625 0 Z M 5.390625 -3.984375 L 4.40625 -8.234375 L 3.4375 -3.984375 Z M 5.390625 -3.984375 "/></g></g><g style="fill:#000000;fill-opacity:1;"><g transform="translate(100.023305, 64.521683)"><path style="stroke:none" d="M 6.453125 -10.921875 L 0.71875 -10.921875 C 0.550781 -10.921875 0.46875 -10.835938 0.46875 -10.671875 L 0.46875 -9.109375 C 0.46875 -8.941406 0.550781 -8.859375 0.71875 -8.859375 L 2.53125 -8.859375 L 2.53125 -0.25 C 2.53125 -0.0820312 2.613281 0 2.78125 0 L 4.390625 0 C 4.554688 0 4.640625 -0.0820312 4.640625 -0.25 L 4.640625 -8.859375 L 6.453125 -8.859375 C 6.617188 -8.859375 6.703125 -8.941406 6.703125 -9.109375 L 6.703125 -10.671875 C 6.703125 -10.835938 6.617188 -10.921875 6.453125 -10.921875 Z M 6.453125 -10.921875 "/></g></g><g style="fill:#000000;fill-opacity:1;"><g transform="translate(107.197205, 64.521683)"><path style="stroke:none" d="M 8.140625 0 L 6.625 0 C 6.488281 0 6.40625 -0.0703125 6.375 -0.21875 L 5.875 -2.1875 L 2.953125 -2.1875 L 2.46875 -0.21875 C 2.4375 -0.0703125 2.351562 0 2.21875 0 L 0.6875 0 C 0.5 0 0.429688 -0.0859375 0.484375 -0.265625 L 3.078125 -10.703125 C 3.109375 -10.847656 3.195312 -10.921875 3.34375 -10.921875 L 5.5 -10.921875 C 5.644531 -10.921875 5.734375 -10.847656 5.765625 -10.703125 L 8.359375 -0.265625 C 8.410156 -0.0859375 8.335938 0 8.140625 0 Z M 5.390625 -3.984375 L 4.40625 -8.234375 L 3.4375 -3.984375 Z M 5.390625 -3.984375 "/></g></g><g style="fill:#000000;fill-opacity:1;"><g transform="translate(116.03982, 64.521683)"><path style="stroke:none" d=""/></g></g><g style="fill:#000000;fill-opacity:1;"><g transform="translate(119.938678, 64.521683)"><path style="stroke:none" d="M 7.296875 -12.46875 L 9.359375 -12.46875 C 9.566406 -12.46875 9.671875 -12.363281 9.671875 -12.15625 L 9.671875 -0.3125 C 9.671875 -0.101562 9.566406 0 9.359375 0 L 7.90625 0 C 7.695312 0 7.59375 -0.101562 7.59375 -0.3125 L 7.59375 -7.328125 L 7.484375 -7.328125 L 5.9375 -0.28125 C 5.894531 -0.09375 5.78125 0 5.59375 0 L 4.828125 0 C 4.648438 0 4.535156 -0.09375 4.484375 -0.28125 L 2.953125 -7.328125 L 2.84375 -7.328125 L 2.84375 -0.3125 C 2.84375 -0.101562 2.738281 0 2.53125 0 L 1.09375 0 C 0.882812 0 0.78125 -0.101562 0.78125 -0.3125 L 0.78125 -12.15625 C 0.78125 -12.363281 0.882812 -12.46875 1.09375 -12.46875 L 3.15625 -12.46875 C 3.34375 -12.46875 3.457031 -12.375 3.5 -12.1875 L 5.21875 -4.421875 L 6.953125 -12.1875 C 7.003906 -12.375 7.117188 -12.46875 7.296875 -12.46875 Z M 7.296875 -12.46875 "/></g></g><g style="fill:#000000;fill-opacity:1;"><g transform="translate(130.387626, 64.521683)"><path style="stroke:none" d="M 8.140625 0 L 6.625 0 C 6.488281 0 6.40625 -0.0703125 6.375 -0.21875 L 5.875 -2.1875 L 2.953125 -2.1875 L 2.46875 -0.21875 C 2.4375 -0.0703125 2.351562 0 2.21875 0 L 0.6875 0 C 0.5 0 0.429688 -0.0859375 0.484375 -0.265625 L 3.078125 -10.703125 C 3.109375 -10.847656 3.195312 -10.921875 3.34375 -10.921875 L 5.5 -10.921875 C 5.644531 -10.921875 5.734375 -10.847656 5.765625 -10.703125 L 8.359375 -0.265625 C 8.410156 -0.0859375 8.335938 0 8.140625 0 Z M 5.390625 -3.984375 L 4.40625 -8.234375 L 3.4375 -3.984375 Z M 5.390625 -3.984375 "/></g></g><g style="fill:#000000;fill-opacity:1;"><g transform="translate(139.230241, 64.521683)"><path style="stroke:none" d="M 5.71875 -10.921875 L 7.1875 -10.921875 C 7.351562 -10.921875 7.4375 -10.835938 7.4375 -10.671875 L 7.4375 -0.25 C 7.4375 -0.0820312 7.351562 0 7.1875 0 L 5.953125 0 C 5.828125 0 5.734375 -0.0664062 5.671875 -0.203125 L 2.75 -6.15625 L 2.75 -0.25 C 2.75 -0.0820312 2.664062 0 2.5 0 L 1.03125 0 C 0.863281 0 0.78125 -0.0820312 0.78125 -0.25 L 0.78125 -10.671875 C 0.78125 -10.835938 0.863281 -10.921875 1.03125 -10.921875 L 2.265625 -10.921875 C 2.390625 -10.921875 2.484375 -10.851562 2.546875 -10.71875 L 5.46875 -4.75 L 5.46875 -10.671875 C 5.46875 -10.835938 5.550781 -10.921875 5.71875 -10.921875 Z M 5.71875 -10.921875 "/></g></g><g style="fill:#000000;fill-opacity:1;"><g transform="translate(147.44904, 64.521683)"><path style="stroke:none" d="M 8.140625 0 L 6.625 0 C 6.488281 0 6.40625 -0.0703125 6.375 -0.21875 L 5.875 -2.1875 L 2.953125 -2.1875 L 2.46875 -0.21875 C 2.4375 -0.0703125 2.351562 0 2.21875 0 L 0.6875 0 C 0.5 0 0.429688 -0.0859375 0.484375 -0.265625 L 3.078125 -10.703125 C 3.109375 -10.847656 3.195312 -10.921875 3.34375 -10.921875 L 5.5 -10.921875 C 5.644531 -10.921875 5.734375 -10.847656 5.765625 -10.703125 L 8.359375 -0.265625 C 8.410156 -0.0859375 8.335938 0 8.140625 0 Z M 5.390625 -3.984375 L 4.40625 -8.234375 L 3.4375 -3.984375 Z M 5.390625 -3.984375 "/></g></g><g style="fill:#000000;fill-opacity:1;"><g transform="translate(156.291656, 64.521683)"><path style="stroke:none" d="M 0.78125 -2.25 L 0.78125 -8.671875 C 0.78125 -9.410156 0.972656 -9.96875 1.359375 -10.34375 C 1.742188 -10.726562 2.300781 -10.921875 3.03125 -10.921875 L 4.765625 -10.921875 C 5.492188 -10.921875 6.050781 -10.726562 6.4375 -10.34375 C 6.820312 -9.96875 7.015625 -9.410156 7.015625 -8.671875 L 7.015625 -7.515625 C 7.015625 -7.347656 6.929688 -7.265625 6.765625 -7.265625 L 5.296875 -7.265625 C 5.128906 -7.265625 5.046875 -7.347656 5.046875 -7.515625 L 5.046875 -8.28125 C 5.046875 -8.695312 4.835938 -8.90625 4.421875 -8.90625 L 3.4375 -8.90625 C 3.019531 -8.90625 2.8125 -8.695312 2.8125 -8.28125 L 2.8125 -2.640625 C 2.8125 -2.222656 3.019531 -2.015625 3.4375 -2.015625 L 4.421875 -2.015625 C 4.835938 -2.015625 5.046875 -2.222656 5.046875 -2.640625 L 5.046875 -3.984375 L 4.234375 -3.984375 C 4.066406 -3.984375 3.984375 -4.066406 3.984375 -4.234375 L 3.984375 -5.796875 C 3.984375 -5.960938 4.066406 -6.046875 4.234375 -6.046875 L 6.765625 -6.046875 C 6.929688 -6.046875 7.015625 -5.960938 7.015625 -5.796875 L 7.015625 -2.25 C 7.015625 -1.519531 6.820312 -0.960938 6.4375 -0.578125 C 6.050781 -0.191406 5.492188 0 4.765625 0 L 3.03125 0 C 2.300781 0 1.742188 -0.191406 1.359375 -0.578125 C 0.972656 -0.960938 0.78125 -1.519531 0.78125 -2.25 Z M 0.78125 -2.25 "/></g></g><g style="fill:#000000;fill-opacity:1;"><g transform="translate(164.089371, 64.521683)"><path style="stroke:none" d="M 7 -10.671875 L 7 -9.109375 C 7 -8.929688 6.914062 -8.84375 6.75 -8.84375 L 2.90625 -8.84375 L 2.90625 -6.4375 L 5.828125 -6.4375 C 5.992188 -6.4375 6.078125 -6.347656 6.078125 -6.171875 L 6.078125 -4.625 C 6.078125 -4.445312 5.992188 -4.359375 5.828125 -4.359375 L 2.90625 -4.359375 L 2.90625 -2.0625 L 6.75 -2.0625 C 6.914062 -2.0625 7 -1.976562 7 -1.8125 L 7 -0.25 C 7 -0.0820312 6.914062 0 6.75 0 L 1.015625 0 C 0.859375 0 0.78125 -0.0820312 0.78125 -0.25 L 0.78125 -10.671875 C 0.78125 -10.835938 0.859375 -10.921875 1.015625 -10.921875 L 6.75 -10.921875 C 6.914062 -10.921875 7 -10.835938 7 -10.671875 Z M 7 -10.671875 "/></g></g><g style="fill:#000000;fill-opacity:1;"><g transform="translate(171.871511, 64.521683)"><path style="stroke:none" d="M 7.296875 -10.921875 L 9.359375 -10.921875 C 9.566406 -10.921875 9.671875 -10.816406 9.671875 -10.609375 L 9.671875 -0.3125 C 9.671875 -0.101562 9.566406 0 9.359375 0 L 7.90625 0 C 7.695312 0 7.59375 -0.101562 7.59375 -0.3125 L 7.59375 -6.4375 L 7.484375 -6.4375 L 6.015625 -0.265625 C 5.960938 -0.0859375 5.847656 0 5.671875 0 L 4.75 0 C 4.570312 0 4.457031 -0.0859375 4.40625 -0.265625 L 2.953125 -6.4375 L 2.84375 -6.4375 L 2.84375 -0.3125 C 2.84375 -0.101562 2.738281 0 2.53125 0 L 1.09375 0 C 0.882812 0 0.78125 -0.101562 0.78125 -0.3125 L 0.78125 -10.609375 C 0.78125 -10.816406 0.882812 -10.921875 1.09375 -10.921875 L 3.15625 -10.921875 C 3.332031 -10.921875 3.445312 -10.832031 3.5 -10.65625 L 5.21875 -3.703125 L 6.953125 -10.65625 C 7.003906 -10.832031 7.117188 -10.921875 7.296875 -10.921875 Z M 7.296875 -10.921875 "/></g></g><g style="fill:#000000;fill-opacity:1;"><g transform="translate(182.320459, 64.521683)"><path style="stroke:none" d="M 7 -10.671875 L 7 -9.109375 C 7 -8.929688 6.914062 -8.84375 6.75 -8.84375 L 2.90625 -8.84375 L 2.90625 -6.4375 L 5.828125 -6.4375 C 5.992188 -6.4375 6.078125 -6.347656 6.078125 -6.171875 L 6.078125 -4.625 C 6.078125 -4.445312 5.992188 -4.359375 5.828125 -4.359375 L 2.90625 -4.359375 L 2.90625 -2.0625 L 6.75 -2.0625 C 6.914062 -2.0625 7 -1.976562 7 -1.8125 L 7 -0.25 C 7 -0.0820312 6.914062 0 6.75 0 L 1.015625 0 C 0.859375 0 0.78125 -0.0820312 0.78125 -0.25 L 0.78125 -10.671875 C 0.78125 -10.835938 0.859375 -10.921875 1.015625 -10.921875 L 6.75 -10.921875 C 6.914062 -10.921875 7 -10.835938 7 -10.671875 Z M 7 -10.671875 "/></g></g><g style="fill:#000000;fill-opacity:1;"><g transform="translate(190.102568, 64.521683)"><path style="stroke:none" d="M 5.71875 -10.921875 L 7.1875 -10.921875 C 7.351562 -10.921875 7.4375 -10.835938 7.4375 -10.671875 L 7.4375 -0.25 C 7.4375 -0.0820312 7.351562 0 7.1875 0 L 5.953125 0 C 5.828125 0 5.734375 -0.0664062 5.671875 -0.203125 L 2.75 -6.15625 L 2.75 -0.25 C 2.75 -0.0820312 2.664062 0 2.5 0 L 1.03125 0 C 0.863281 0 0.78125 -0.0820312 0.78125 -0.25 L 0.78125 -10.671875 C 0.78125 -10.835938 0.863281 -10.921875 1.03125 -10.921875 L 2.265625 -10.921875 C 2.390625 -10.921875 2.484375 -10.851562 2.546875 -10.71875 L 5.46875 -4.75 L 5.46875 -10.671875 C 5.46875 -10.835938 5.550781 -10.921875 5.71875 -10.921875 Z M 5.71875 -10.921875 "/></g></g><g style="fill:#000000;fill-opacity:1;"><g transform="translate(198.321374, 64.521683)"><path style="stroke:none" d="M 6.453125 -10.921875 L 0.71875 -10.921875 C 0.550781 -10.921875 0.46875 -10.835938 0.46875 -10.671875 L 0.46875 -9.109375 C 0.46875 -8.941406 0.550781 -8.859375 0.71875 -8.859375 L 2.53125 -8.859375 L 2.53125 -0.25 C 2.53125 -0.0820312 2.613281 0 2.78125 0 L 4.390625 0 C 4.554688 0 4.640625 -0.0820312 4.640625 -0.25 L 4.640625 -8.859375 L 6.453125 -8.859375 C 6.617188 -8.859375 6.703125 -8.941406 6.703125 -9.109375 L 6.703125 -10.671875 C 6.703125 -10.835938 6.617188 -10.921875 6.453125 -10.921875 Z M 6.453125 -10.921875 "/></g></g></g></svg>